<svg xmlns="http://www.w3.org/2000/svg" viewBox="0 0 408.18 408.18" xmlns:v="https://vecta.io/nano"><style><![CDATA[.D{stroke-miterlimit:10}.E{stroke-linejoin:round}.F{stroke-linecap:round}]]></style><g fill="none" stroke="#000"><g class="D"><path d="M212.49 172.82a32.93 32.93 0 0 0-17 .17M186 79.11a.84.84 0 0 0-1-.58 1.64 1.64 0 0 0-1.13 1 .85.85 0 0 0 1.16 1.15.6.6 0 0 0 .27-.1 1.3 1.3 0 0 0 .7-1.47zm6.16-3.22a1.29 1.29 0 0 0-.26-.76 1.22 1.22 0 0 0-1.82 0 .74.74 0 0 0-.14.22 1 1 0 0 0-.29.41A1.32 1.32 0 0 0 190 77a1.59 1.59 0 0 0 .15.21 1.43 1.43 0 0 0 2.26-.32.72.72 0 0 0-.25-1zm5.47-2.63a.34.34 0 0 0 0-.1 1.71 1.71 0 1 0-3.37.54 2.61 2.61 0 0 0 1.74 1.66c1.31.37 2-1.05 1.63-2.1zm7.05-5.42a2.19 2.19 0 0 0-2.79.63 3.16 3.16 0 0 0-1 1.49 2.84 2.84 0 0 0 1.88 3.46c3.12 1 4.65-4.22 1.91-5.58zm15.61 11.27a.85.85 0 0 1 1-.58 1.62 1.62 0 0 1 1.13 1 .85.85 0 0 1-1.16 1.15.6.6 0 0 1-.27-.1 1.31 1.31 0 0 1-.7-1.47zm-6.13-3.22a1.3 1.3 0 0 1 .27-.76 1.22 1.22 0 0 1 1.82 0 1.64 1.64 0 0 1 .14.22.94.94 0 0 1 .28.41 1.32 1.32 0 0 1-.31 1.21 1.53 1.53 0 0 1-.14.21 1.44 1.44 0 0 1-2.27-.32.74.74 0 0 1 .21-.97zm-5.47-2.63v-.1a1.62 1.62 0 0 1 1.55-1.48 1.59 1.59 0 0 1 1.82 2 2.61 2.61 0 0 1-1.69 1.66c-1.37.39-2.03-1.03-1.68-2.08zm-7.83 104.53a3.38 3.38 0 0 0-.14-.63.78.78 0 0 0-1.29-.34 2 2 0 0 0-.77 1.43 1.8 1.8 0 0 0 .56 1.12l.09.19a.53.53 0 0 0 .31.21.9.9 0 0 0 1.41-.45 4 4 0 0 0 .11-.84.8.8 0 0 0-.28-.69zm6.28-.2a.86.86 0 0 0-.17-.36v-.37a1 1 0 0 0-1.21-.68c-.47.19-1 .31-1.26.79a1.15 1.15 0 0 0-.09.91 1.85 1.85 0 0 0 .13.29l.11.34a1.1 1.1 0 0 0 1 .78 1.43 1.43 0 0 0 1.49-1.7zm-1.52 4.2a1.07 1.07 0 0 0-1.19-.49 1.37 1.37 0 0 0-1 1.25 2.34 2.34 0 0 0 .05.41 1.25 1.25 0 0 0 .17.64 1.28 1.28 0 0 0 .42.38.58.58 0 0 0 .86 0 .6.6 0 0 1 .13-.09 1.1 1.1 0 0 0 .21-.14 1.32 1.32 0 0 0 .51-.44 1.49 1.49 0 0 0-.16-1.52zm-2.56 3.75a1.19 1.19 0 0 0-.6-.38 1 1 0 0 0-1.11.46 1 1 0 0 0 .15 1.19c0-.12 0-.12 0 0s.05.13.07.19a.63.63 0 0 0 1.17.07 1 1 0 0 0 .32-1.53zm3.12 2.39a1 1 0 0 0-1.26.14 1.43 1.43 0 0 0-.36 1 .66.66 0 0 0 .83.63 1 1 0 0 0 .27-.13.67.67 0 0 0 .32 0c-.25.13.13 0 .24 0a.7.7 0 0 0 .37-.35.94.94 0 0 0-.41-1.29zm-1.95 3.79a1 1 0 0 0-1.4.37 1.81 1.81 0 0 0-.21.92s.07.46 0 .2v.11a.84.84 0 0 0 .58.81c-.23-.08.09 0 .15.06a1 1 0 0 0 .66-.05 1.38 1.38 0 0 0 .68-.56 1.44 1.44 0 0 0-.46-1.86zm-3.48-7.67h0z"/><path d="M201.17 182.4a1.64 1.64 0 0 0-1-.45 1.14 1.14 0 0 0-1.09 1.43 1.1 1.1 0 0 0 .55.67h0a1 1 0 0 0 .74.14c.05 0 .36-.11.46-.14.54-.24.96-1.14.34-1.65zm7.71-2.06h-.08a1.14 1.14 0 0 0-1.13 1 .76.76 0 0 0 .54 1.26h.21a1.16 1.16 0 0 0 1.56-1.09v-.08a1.11 1.11 0 0 0-1.1-1.09zm2.35-4.18h0 0a.8.8 0 0 0-.93 0 1.41 1.41 0 0 0-.33.23 1.08 1.08 0 0 0-.27 1c0 .12.05.23.08.35s.06.45 0 .11a.93.93 0 0 0 1.82.25c.22-.65.26-1.57-.37-1.94zm-.35 8.93a1.34 1.34 0 0 0-1.83-.64 1.32 1.32 0 0 0-.53.61 1.25 1.25 0 0 0-.15.46.75.75 0 0 0 0 .42q0-.25 0-.09c-.05.49.43.81.85.86a1.24 1.24 0 0 0 .78-.21h0a1.18 1.18 0 0 0 .57-.22.89.89 0 0 0 .31-1.19zm-4.12-.38a1 1 0 0 0-1.46.37.66.66 0 0 0-.06 1 2.79 2.79 0 0 0 .42.28.94.94 0 0 0 .93 0l.08-.06a1 1 0 0 0 .09-1.59zm2.4 4.21a1.09 1.09 0 0 0-1.54 0 1.39 1.39 0 0 0-.41 1 1.76 1.76 0 0 0 .06.39c0 .05.14.47.1.27a.89.89 0 0 0 1.29.53 1.06 1.06 0 0 0 .36-.31.84.84 0 0 0 .31-.19 1.22 1.22 0 0 0-.17-1.69zm-1.16 5.55c-.23-.83-1.23-.82-1.84-.5-1 .53-.29 2.32.78 1.86a3.07 3.07 0 0 0 .45-.2l.09-.07a.93.93 0 0 0 .52-1.09zm-3 4.39a.89.89 0 0 0-1.07-.61 1 1 0 0 0-.34.14.79.79 0 0 0 0 1.38v.08a.63.63 0 0 0 1.24.17 2.32 2.32 0 0 0 .17-1.16zm-2-24.52a1.12 1.12 0 0 0 0 2.23 1.12 1.12 0 0 0 0-2.23zm-3.77-33.43c-.1-1.06-.93-2.54-2.18-1.71a1.89 1.89 0 0 0-.86 2.11 1.77 1.77 0 0 0 2 1 .82.82 0 0 0 .29-.08.75.75 0 0 0 .3-.09 1.27 1.27 0 0 0 .45-1.23z"/></g><g class="E"><path d="M230.6,80.39c-4.75-9.13-17.87-4.56-26.62-23.14-10.22,18-22,15.27-28,22.79L183,86.15s9.81-8.4,20.36-8.4,21.05,8.4,21.05,8.4Z"/><g class="F"><path d="M176 80s-9-9.92-3.79-21.29 10-17 4.87-27c0 0 8.54 2.36 8.75 15.87s3.18 19.13 8.59 21.19m-8.07-15.27c1-10.88 16.63-18.5 15.13-35.65A25 25 0 0 0 191.6.5s14 .59 17.75 15.13c3.93 15.1-1.11 29.49 11.77 38.11"/><path d="M213.29 69.18s5.94-4.3 7.44-10.8.37-19.76 9.12-26.63a25.09 25.09 0 0 0 1.38 17.37c2.12 4.5 5.25 12 5.25 18.26s-5.88 13-5.88 13m-19.85-56.76c1.9-5.87 10.85-8.4 14.13-11.09 2.63-2.15 2-5.53 1.72-7.28a8.54 8.54 0 0 1 5.5 8.75c-.37 5-6 7.88-8.52 13.38s1.58 10.09 1.58 10.09"/><path d="M198.73 31s-8.37 2.7-13.25-4.42-6.13-15.2-20.5-12.7c3.5 1.12 6.7 3.13 6.36 10s-5.86 9.49-5 16.36M226 23.55c3.48-.8 17.35-4.8 19.73-13.8 2.75 9.75 12.75 14.87 13.87 27.25M151.29 57.07S148.35 54 153 44.62s4.26-13.1 4.26-13.1c5.61 10.6 17.51 9.62 19.14 18.67M191.72 131s3.28-17.5 10.69-31.5l1-12.35s-3.72-6.92-7.77-7.71M174.1 78s3.14 13.33 6.69 20.06c3.84 7.29 7.77 11.89 15.6 15.54M183 86.15s14 10.42 16.81 17.85m3-11.08s-7.08-.67-9.67 1.66"/><path d="M188.73 83.33S196 91.08 196 93.42m-3.29-12.67s5.35 6.16 6.43 12.08m-13.89 44.55c2.41-6.73 17.56-8.38 18.34-16.38l-.15 14.33c-10 .34-13.46 6.09-13.46 6.09m5.33 30c-1.75-9.17 7.33-20.09 8-30.59"/><path d="M185.25 137.71c5.48 2.38 8.6 11.41 14.54 13.74m2.52-7.2a8 8 0 0 0-7.89 2.59m3.46-18.59l2.11 7.13m-6.99-4.73s.81 4.39 3.18 5.81m-7.97-2.52s2.65 4.66 4.2 5M177.64 108A59.73 59.73 0 0 1 194 121.69m-1.37 5.12s-5.49-5.56-11.24-6.5"/></g></g><path d="M208 140.91c.1-1.06.93-2.54 2.18-1.71a1.89 1.89 0 0 1 .86 2.11 1.77 1.77 0 0 1-2 1 .82.82 0 0 1-.29-.08.75.75 0 0 1-.3-.09 1.27 1.27 0 0 1-.45-1.23z" class="D"/><g class="E F"><path d="M215.47 131s-3.26-17.54-10.7-31.54l-1-12.35s3.72-6.92 7.77-7.71m21.54-1.4s-3.14 13.33-6.69 20.06c-3.84 7.29-7.77 11.89-15.6 15.54m13.44-27.45S210.17 96.57 207.37 104m-3-11.08s7.08-.67 9.67 1.66"/><path d="M218.45 83.33s-7.23 7.75-7.23 10.09m3.25-12.67s-5.35 6.16-6.43 12.08m13.89 44.55c-2.41-6.73-17.56-8.38-18.34-16.38l.15 14.33c10 .34 13.46 6.09 13.46 6.09m-5.33 30c1.75-9.17-8-20.09-8.6-30.59"/><path d="M221.93 137.71c-5.48 2.38-8.6 11.41-14.54 13.74m-2.52-7.2a8 8 0 0 1 7.89 2.59m-3.46-18.59l-2.11 7.13m7-4.73s-.81 4.39-3.18 5.81m7.99-2.52s-2.66 4.66-4.21 5M229.54 108a59.73 59.73 0 0 0-16.31 13.69m1.32 5.12s5.49-5.56 11.24-6.5m-7.65-56.76s-11.21-3.3-12.41-12.55 4.66-13 2.16-30S192.71.75 192.71.75s12.29 5.3 12.75 19.17c.65 17.37-13.57 25.3-13.23 37.08.14 5 2.08 7.25 5.35 9.17M219.61 62s5.57 10.14 16.18 9.38m-14.67-15.17s7.56 9.67 14.67 5.29m-13.52-12.38s7.73 10.38 11.17 5.63m-9.93-11.44s4 6.35 6.32 2.08m-3.16-39.67a5.9 5.9 0 0 1 1.28 4c.08 6.87-10.51 10.13-12.66 21.13-1.55 7.88 3.06 16.62 6.15 19.31m2.07-9.04a10.35 10.35 0 0 1-4.37-11.74c2.18-7.95 10.58-13.26 10.58-18.26s-2.7-5.4-2.7-5.4m-60.88 8.16s5.81-.84 9.13 4 5 17.17 20.18 19.26m-28.88-23.02s4.79.69 6.25 4.26C177 28.43 169 39.88 178 45.5m.24-12.62s4.45 6.09 2.87 12.84-7.56 22.78-.91 30.53m7.87-3.5c-1.67-1.66-5.82-8.38-5.06-18.5s.79-17.41-4.95-21.87M246 10.47c.16 7.93 10.53 17.94 6.54 30.41"/><path d="M246 10.47c.72 7.49-6.49 19.79-4.45 27.86m-12.31 1.92c0-9.15 14.12-15.25 16.49-30.5m-88.37 22.63c3.2 14.84 16.38 14.62 16.88 22.18m-15.34 8.89c-6.74-9.66.23-20.62-1.73-31.57"/><path d="M169.86,63.25c-7.62-4.63-12.5-23-12.62-31.73"/></g><g class="D"><path d="M195.69 235.36a33 33 0 0 0 8.19 1 32.61 32.61 0 0 0 8.79-1.2m9.48 93.91a.84.84 0 0 0 1 .58 1.64 1.64 0 0 0 1.13-1 .85.85 0 0 0-1.16-1.15.6.6 0 0 0-.27.1 1.3 1.3 0 0 0-.7 1.47zm-6.15 3.22a1.29 1.29 0 0 0 .26.76 1.22 1.22 0 0 0 1.82 0 .64.64 0 0 0 .14-.22.91.91 0 0 0 .29-.41 1.32 1.32 0 0 0-.31-1.21 1 1 0 0 0-.15-.21 1.43 1.43 0 0 0-2.26.32.73.73 0 0 0 .21.97zm-5.45 2.63a.33.33 0 0 0 0 .1 1.61 1.61 0 0 0 1.55 1.48 1.59 1.59 0 0 0 1.82-2 2.61 2.61 0 0 0-1.69-1.66c-1.36-.39-2.04 1.03-1.68 2.08zm-7.05 5.42a2.2 2.2 0 0 0 2.8-.63 3.22 3.22 0 0 0 1-1.49 2.83 2.83 0 0 0-1.88-3.46c-3.13-1-4.66 4.24-1.92 5.58zm-15.61-11.27a.85.85 0 0 1-1 .58 1.64 1.64 0 0 1-1.13-1 .85.85 0 0 1 1.16-1.15.6.6 0 0 1 .27.1 1.31 1.31 0 0 1 .7 1.47zm6.11 3.22a1.3 1.3 0 0 1-.27.76 1.22 1.22 0 0 1-1.82 0 1.18 1.18 0 0 1-.14-.22 1 1 0 0 1-.28-.41 1.32 1.32 0 0 1 .31-1.21 1.53 1.53 0 0 1 .2-.21 1.44 1.44 0 0 1 2.27.32.74.74 0 0 1-.27.97zm5.49 2.63v.1a1.62 1.62 0 0 1-1.55 1.48 1.59 1.59 0 0 1-1.82-2 2.61 2.61 0 0 1 1.69-1.66c1.36-.39 2.03 1.03 1.68 2.08zm7.83-104.53a3.38 3.38 0 0 0 .14.63.78.78 0 0 0 1.29.34 2 2 0 0 0 .77-1.43 1.8 1.8 0 0 0-.56-1.12l-.09-.19a.53.53 0 0 0-.31-.21.9.9 0 0 0-1.41.45 4 4 0 0 0-.11.84.8.8 0 0 0 .28.69zm-6.32.2a.77.77 0 0 0 .18.36v.37a1 1 0 0 0 1.21.69c.47-.2 1-.32 1.26-.8a1.15 1.15 0 0 0 .09-.91 1.85 1.85 0 0 0-.13-.29l-.11-.34a1.08 1.08 0 0 0-1-.77 1.42 1.42 0 0 0-1.5 1.69zm1.56-4.19a1.08 1.08 0 0 0 1.19.48 1.37 1.37 0 0 0 1-1.24 2.36 2.36 0 0 0 0-.42 1.25 1.25 0 0 0-.17-.64 1.28 1.28 0 0 0-.42-.38.59.59 0 0 0-.86 0 .6.6 0 0 1-.13.09 1.1 1.1 0 0 0-.21.14 1.23 1.23 0 0 0-.5.44 1.49 1.49 0 0 0 .1 1.53zm2.56-3.76a1.13 1.13 0 0 0 .6.38 1 1 0 0 0 1.11-.46 1 1 0 0 0-.15-1.19c0 .13 0 .12 0 0l-.07-.19a.63.63 0 0 0-1.17-.07 1 1 0 0 0-.32 1.53zm-3.12-2.39a1 1 0 0 0 1.26-.14 1.43 1.43 0 0 0 .36-1 .66.66 0 0 0-.83-.63 1 1 0 0 0-.27.13.59.59 0 0 0-.32 0c.25-.14-.13 0-.24 0a.7.7 0 0 0-.37.35.94.94 0 0 0 .41 1.29zm2-3.79a1 1 0 0 0 1.4-.36 1.86 1.86 0 0 0 .21-.92s-.07-.47 0-.21v-.1a.85.85 0 0 0-.58-.82c.24.08-.09 0-.14-.06a1.09 1.09 0 0 0-.67 0 1.32 1.32 0 0 0-.67.56 1.43 1.43 0 0 0 .45 1.91zm3.43 7.67h0c-.04.01-.03.01 0 0z"/><path d="M207 225.79a1.63 1.63 0 0 0 1 .44 1.14 1.14 0 0 0 1.09-1.43 1.1 1.1 0 0 0-.55-.67h0a1 1 0 0 0-.74-.14l-.46.14a1 1 0 0 0-.34 1.66zm-7.7 2.05h.08a1.14 1.14 0 0 0 1.13-1 .76.76 0 0 0-.54-1.26h-.21a1.16 1.16 0 0 0-1.56 1.09v.08a1.12 1.12 0 0 0 1.1 1.09zM197 232h0 0a.8.8 0 0 0 .92 0 1.72 1.72 0 0 0 .33-.22 1.1 1.1 0 0 0 .27-1.05c0-.12 0-.23-.08-.35s-.06-.45 0-.11a.93.93 0 0 0-1.82-.25c-.26.71-.3 1.63.38 1.98zm.31-8.91a1.27 1.27 0 0 0 2.35 0 1.36 1.36 0 0 0 .15-.47.71.71 0 0 0 0-.41v.08c.05-.49-.43-.81-.85-.85a1.18 1.18 0 0 0-.78.2h0a1.18 1.18 0 0 0-.57.22.88.88 0 0 0-.3 1.23zm4.11.38a1 1 0 0 0 1.46-.37.66.66 0 0 0 .06-1 2.79 2.79 0 0 0-.42-.28.94.94 0 0 0-.93 0l-.08.06a1 1 0 0 0-.09 1.59zm-2.42-4.21a1.08 1.08 0 0 0 1.54 0 1.39 1.39 0 0 0 .41-1 1.85 1.85 0 0 0-.06-.39c0-.05-.14-.47-.1-.27a.89.89 0 0 0-1.29-.53 1.06 1.06 0 0 0-.36.31.84.84 0 0 0-.31.19 1.22 1.22 0 0 0 .17 1.69zm1.14-5.55c.23.83 1.23.82 1.84.5 1-.53.29-2.32-.78-1.86a3.62 3.62 0 0 0-.45.2l-.09.07a.93.93 0 0 0-.52 1.09zm3.08-4.39a.89.89 0 0 0 1.07.61.85.85 0 0 0 .34-.14.79.79 0 0 0 0-1.38v-.08a.63.63 0 0 0-1.24-.17 2.32 2.32 0 0 0-.17 1.16zm2 24.53a1.12 1.12 0 0 0 0-2.24 1.12 1.12 0 0 0 0 2.24zm3.78 33.42c.1 1.06.93 2.54 2.18 1.71a1.89 1.89 0 0 0 .86-2.1 1.77 1.77 0 0 0-2-1 .82.82 0 0 0-.29.08.63.63 0 0 0-.3.1 1.25 1.25 0 0 0-.45 1.21z"/></g><g class="E"><path d="M177.58,327.79c4.75,9.13,17.87,4.57,26.62,23.14,10.23-18,22-15.27,28-22.79L225.23,322s-9.81,8.4-20.36,8.4-21.05-8.4-21.05-8.4Z"/><g class="F"><path d="M232.16 328.14s9 9.92 3.79 21.29-10 17-4.87 27c0 0-8.54-2.36-8.75-15.87s-3.18-19.13-8.59-21.19m8.09 15.31c-1 10.88-16.63 18.5-15.13 35.65a25 25 0 0 0 9.88 17.35s-14-.59-17.75-15.13c-3.93-15.1 1.11-29.49-11.77-38.11"/><path d="M194.89 339s-5.94 4.3-7.44 10.8-.37 19.75-9.12 26.62a25.09 25.09 0 0 0-1.33-17.36c-2.12-4.5-5.25-12-5.25-18.25s5.88-13 5.88-13m19.8 56.75c-1.9 5.88-10.85 8.4-14.13 11.09-2.63 2.16-2 5.53-1.72 7.28a8.54 8.54 0 0 1-5.5-8.75c.37-5 6-7.87 8.52-13.37s-1.58-10.1-1.58-10.1"/><path d="M209.45 377.18s8.37-2.7 13.25 4.42 6.13 15.21 20.5 12.71c-3.5-1.13-6.7-3.14-6.36-10s5.86-9.48 5-16.36m-59.66 16.68c-3.48.8-17.35 4.8-19.73 13.8-2.75-9.75-12.75-14.87-13.87-27.25m108.31-20.07s2.94 3.07-1.69 12.45-4.26 13.1-4.26 13.1c-5.61-10.6-17.51-9.62-19.14-18.67m-15.33-80.85s-3.26 17.54-10.7 31.54l-1 12.35s3.72 6.92 7.77 7.71m21.54 1.44s-3.14-13.33-6.69-20.06c-3.84-7.29-7.77-11.89-15.6-15.54M225.23 322s-14.06-10.42-16.86-17.88m-3 11.14s7.08.67 9.67-1.66"/><path d="M219.45 324.85s-7.23-7.75-7.23-10.09m3.25 12.67s-5.35-6.16-6.43-12.08m13.89-44.54c-2.41 6.72-17.56 8.37-18.34 16.37l.15-14.33c10-.34 13.46-6.09 13.46-6.09m-5.33-30c1.75 9.17-7.33 20.09-8 30.59"/><path d="M222.93 270.47c-5.48-2.38-8.6-11.41-14.54-13.74m-2.52 7.2a8 8 0 0 0 7.89-2.59m-3.46 18.59l-2.11-7.12m7 4.72s-.81-4.39-3.18-5.81m7.99 2.52s-2.66-4.66-4.21-4.95m14.75 30.89a59.73 59.73 0 0 1-16.31-13.69"/><path d="M215.55,281.37s5.49,5.56,11.24,6.5"/></g></g><path d="M200.23 267.27c-.1 1.06-.93 2.54-2.18 1.71a1.89 1.89 0 0 1-.86-2.1 1.77 1.77 0 0 1 2-1 .82.82 0 0 1 .29.08.63.63 0 0 1 .3.1 1.25 1.25 0 0 1 .45 1.21z" class="D"/><g class="E F"><path d="M192.72 277.14s3.26 17.54 10.69 31.54l1 12.35s-3.72 6.92-7.77 7.71m-21.54 1.44s3.14-13.33 6.69-20.06c3.84-7.29 7.77-11.89 15.6-15.54M184 322s14.06-10.42 16.86-17.88m2.95 11.14s-7.08.67-9.67-1.66"/><path d="M189.73 324.85s7.27-7.75 7.27-10.09m-3.29 12.67s5.35-6.16 6.43-12.08m-13.89-44.54c2.41 6.72 17.56 8.37 18.34 16.37l-.15-14.33c-10-.34-13.46-6.09-13.46-6.09m5.33-30c-1.75 9.17 8 20.09 8.6 30.59"/><path d="M186.25 270.47c5.48-2.38 8.6-11.41 14.54-13.74m2.52 7.2a8 8 0 0 1-7.89-2.59m3.46 18.59l2.11-7.12m-6.99 4.72s.81-4.39 3.18-5.81m-7.97 2.52s2.65-4.66 4.2-4.95m-14.77 30.89A59.73 59.73 0 0 0 195 286.49m-1.37-5.12s-5.49 5.56-11.24 6.5m7.61 56.76s11.21 3.3 12.41 12.55-4.66 13-2.16 30 15.18 20.25 15.18 20.25-12.24-5.3-12.75-19.17c-.65-17.37 13.57-25.3 13.23-37.08-.14-5-2.08-7.25-5.35-9.17m-21.99 4.17S183 336 172.4 336.8m14.66 15.2s-7.56-9.66-14.66-5.29m13.51 12.35s-7.72-10.38-11.17-5.63m9.93 11.45s-4-6.36-6.32-2.09m3.16 39.67a5.9 5.9 0 0 1-1.28-4c-.08-6.87 10.51-10.12 12.66-21.12 1.55-7.89-3.06-16.63-6.15-19.32m-2.07 9.04a10.35 10.35 0 0 1 4.33 11.75c-2.18 7.94-10.58 13.25-10.58 18.25s2.7 5.4 2.7 5.4m60.88-8.15s-5.81.83-9.13-4-5-17.17-20.18-19.26m28.92 23.01s-4.79-.69-6.25-4.25c-4.13-10.06 3.83-21.5-5.13-27.13m-.29 12.63s-4.45-6.1-2.87-12.85 7.56-22.78.91-30.53m-7.87 3.5c1.67 1.67 5.82 8.38 5.06 18.5s-.79 17.41 5 21.88m-67.93 21.9c-.17-7.93-10.54-17.94-6.55-30.4"/><path d="M162.24 397.71c-.73-7.49 6.48-19.79 4.44-27.86m12.26-1.92c0 9.15-14.12 15.25-16.49 30.5m88.37-22.62c-3.2-14.85-16.38-14.63-16.88-22.19m15.34-8.89c6.74 9.66-.23 20.62 1.73 31.57"/><path d="M238.32,344.93c7.62,4.63,12.5,23,12.62,31.73"/></g><g class="D"><path d="M227 181.21a33 33 0 0 0-14.79-8.35m38.73-86.04a.84.84 0 0 0-.59-1 1.64 1.64 0 0 0-1.46.27.85.85 0 0 0 .43 1.58.68.68 0 0 0 .29 0 1.31 1.31 0 0 0 1.33-.85zm6.92.28a1.29 1.29 0 0 0 .15-.79 1.23 1.23 0 0 0-1.58-.91 1.27 1.27 0 0 0-.23.12.91.91 0 0 0-.45.22 1.27 1.27 0 0 0-.33 1.2 1.06 1.06 0 0 0 0 .25 1.44 1.44 0 0 0 2.12.86.74.74 0 0 0 .32-.95zm6.05.46l.06-.09a1.61 1.61 0 0 0-.61-2 1.58 1.58 0 0 0-2.58.83 2.58 2.58 0 0 0 .62 2.29 1.5 1.5 0 0 0 2.51-1.03zm8.82-1.17a2.2 2.2 0 0 0-2.74-.85 3.15 3.15 0 0 0-1.6.79 2.84 2.84 0 0 0-.11 3.94c2.21 2.43 6.14-1.33 4.45-3.88zm7.88 17.61a.85.85 0 0 1 1.16 0 1.6 1.6 0 0 1 .5 1.4.85.85 0 0 1-1.58.42.82.82 0 0 1-.19-.22 1.33 1.33 0 0 1 .11-1.6zm-3.7-5.9a1.29 1.29 0 0 1 .61-.52 1.23 1.23 0 0 1 1.58.91 1 1 0 0 1 0 .25 1 1 0 0 1 0 .51 1.28 1.28 0 0 1-.87.88 1.2 1.2 0 0 1-.23.11 1.42 1.42 0 0 1-1.8-1.4.73.73 0 0 1 .71-.74zm-3.42-5.01l.05-.09a1.61 1.61 0 0 1 2.08-.5 1.58 1.58 0 0 1 .57 2.65 2.61 2.61 0 0 1-2.3.6 1.5 1.5 0 0 1-.4-2.66zm-59.05 86.6a2.91 2.91 0 0 0 .2-.61.78.78 0 0 0-.95-.94 2 2 0 0 0-1.38.86 1.8 1.8 0 0 0-.08 1.25v.2a.5.5 0 0 0 .16.34.9.9 0 0 0 1.45.32 4.09 4.09 0 0 0 .51-.67.83.83 0 0 0 .09-.75zm5.56 2.98a.73.73 0 0 0 0-.41c.05-.11.11-.2.16-.33a1 1 0 0 0-.71-1.2 2.18 2.18 0 0 0-1.49.06 1.19 1.19 0 0 0-.53.74 3.11 3.11 0 0 0 0 .32l-.07.35a1.1 1.1 0 0 0 .5 1.18 1.43 1.43 0 0 0 2.14-.71zm-3.43 2.87a1.06 1.06 0 0 0-.79-1 1.36 1.36 0 0 0-1.52.55 3.07 3.07 0 0 0-.17.38 1.1 1.1 0 0 0 0 1.18.58.58 0 0 0 .72.47h.17a1 1 0 0 0 .25 0 1.17 1.17 0 0 0 .65-.13 1.48 1.48 0 0 0 .69-1.45zm-4.1 1.97a1.17 1.17 0 0 0-.33-.63 1 1 0 0 0-1.19-.16 1 1 0 0 0-.46 1.11q.09-.17 0 0v.2a.63.63 0 0 0 1 .64 1 1 0 0 0 .98-1.16zm1.53 3.63a1 1 0 0 0-1.16-.51 1.49 1.49 0 0 0-.83.71.66.66 0 0 0 .4 1 1.53 1.53 0 0 0 .3 0 .76.76 0 0 0 .3.12c-.28 0 .1.09.22.1a.71.71 0 0 0 .49-.11 1 1 0 0 0 .28-1.31zm-3.61 2.31a1 1 0 0 0-1.39-.39 1.87 1.87 0 0 0-.64.7l-.08.19v.1a.83.83 0 0 0 .09 1c-.16-.19.06.09.1.13a1.06 1.06 0 0 0 .6.29 1.36 1.36 0 0 0 .86-.15 1.42 1.42 0 0 0 .46-1.87zm.82-8.39h0z"/><path d="M212.41 183.84a1.67 1.67 0 0 0-.67-.9 1.14 1.14 0 0 0-1.66.7 1.12 1.12 0 0 0 .14.85h0a1 1 0 0 0 .57.5l.46.1c.62.07 1.44-.49 1.16-1.25zm7.7 2.08h-.07a1.14 1.14 0 0 0-1.47.29.76.76 0 0 0-.16 1.37l.17.11a1.16 1.16 0 0 0 1.9-.16v-.07a1.11 1.11 0 0 0-.37-1.54zm4.13-2.44h0 0a.8.8 0 0 0-.8-.47 1.31 1.31 0 0 0-.39 0 1.06 1.06 0 0 0-.76.76c0 .12-.07.24-.1.35s-.17.42 0 .11a.94.94 0 0 0 1.46 1.13c.46-.48.95-1.25.59-1.88zm-4.78 7.52a1.33 1.33 0 0 0-1.25-1.47 1.42 1.42 0 0 0-.77.26 1.26 1.26 0 0 0-.36.33.69.69 0 0 0-.19.37c.07-.15.07-.18 0-.09a.88.88 0 0 0 .31 1.17 1.18 1.18 0 0 0 .78.21h0a1.36 1.36 0 0 0 .6.1.89.89 0 0 0 .88-.88zm-3.37-2.35a1 1 0 0 0-1.44-.42c-.37.07-.71.46-.55.83a2.35 2.35 0 0 0 .22.45.94.94 0 0 0 .81.47h.09a1 1 0 0 0 .87-1.33zm-.02 4.84a1.09 1.09 0 0 0-1.33-.77 1.31 1.31 0 0 0-.86.66 1.49 1.49 0 0 0-.14.37c0 .05-.12.48-.06.28a.89.89 0 0 0 .86 1.1 1.24 1.24 0 0 0 .46-.08.78.78 0 0 0 .37 0c.7-.2.82-.96.7-1.56zm-3.75 4.24c.22-.83-.65-1.32-1.34-1.35-1.13 0-1.42 1.86-.25 2a2.59 2.59 0 0 0 .48 0h.12a.93.93 0 0 0 .99-.65zm-4.86 2.27a.9.9 0 0 0-.62-1.07 1 1 0 0 0-.37-.05.8.8 0 0 0-.67 1.21v.07a.64.64 0 0 0 1 .77 2.36 2.36 0 0 0 .66-.93zM218 177.76a1.113 1.113 0 0 0-1.11 1.93 1.113 1.113 0 0 0 1.11-1.93zm13.47-30.82c.45-1 .46-2.66-1-2.57a1.89 1.89 0 0 0-1.8 1.39 1.78 1.78 0 0 0 1.24 1.9.84.84 0 0 0 .29.08.82.82 0 0 0 .31.07c.49-.01.78-.47.96-.87z"/></g><g class="E"><path d="M288.9,110.22c.45-10.28-13.19-12.89-11.49-33.35-17.85,10.47-26.65,2.24-35.61,5.75l2.95,8.76s12.7-2.37,21.83,2.9,14,17.81,14,17.81Z"/><g class="F"><path d="M241.8 82.62s-2.87-13.1 7.36-20.33 17.16-9.72 17.73-20.95c0 0 6.21 6.32-.36 18.13s-6.81 18.15-3.16 22.64m.63-17.3c6.31-8.92 23.65-7.71 30.93-23.32a24.92 24.92 0 0 0 .12-20s11.79 7.49 7.8 22c-4.14 15-15.7 25-8.86 38.89m-14.47 9.47s7.29-.76 11.83-5.64 10.2-16.91 21.22-18.49a25.13 25.13 0 0 0-7.5 15.73c-.41 5-1.45 13-4.58 18.43s-11.59 8.34-11.59 8.34m11.19-59.09c4.58-4.14 13.6-1.85 17.79-2.54 3.35-.55 4.47-3.8 5.12-5.45a8.53 8.53 0 0 1 .39 10.33c-2.82 4.15-9.17 3.8-14.06 7.33s-3.68 9.53-3.68 9.53"/><path d="M286 51.51s-8.6-1.85-9.27-10.46 2.3-16.23-11.4-21.25c2.47 2.73 4.24 6.07.51 11.85s-9.82 5.29-12.5 11.68m60 15.36c3.4 1.05 17.42 4.52 24-2.09-2.5 9.82 3.6 19.26-1.61 30.54M231.88 50.37s-1-4.13 7.68-9.94 10.24-9.21 10.24-9.21C249.36 43.2 260.15 48.3 257 57m-27.1 77.64s11.59-13.56 25-22l7.1-10.14s.24-7.86-2.88-10.57"/><path d="M241.16 79.9s-3.94 13.11-4.24 20.72c-.31 8.22.79 14.18 5.75 21.26m2.08-30.5s7 16.06 5.66 23.92m8.16-8.13s-5.8-4.12-9.21-3.39"/><path d="M251.16 91.83s2.39 10.33 1.22 12.35m3.52-12.6s1.56 8-.46 13.68m-34.31 31.63c5.45-4.61 19.4 1.53 24.07-5l-7.29 12.34c-8.86-4.73-14.71-1.46-14.71-1.46m-10.38 28.63c3.07-8.81 16.39-13.73 22.19-22.5"/><path d="M221 137.18c3.56 4.81 1.75 14.19 5.72 19.18m5.75-4.98a8 8 0 0 0-8.13-1.71m12.29-14.37l-1.74 7.23m-3.7-7.59s-1.49 4.2-.14 6.62m-5.64-6.17s0 5.37 1.16 6.4m2.66-34.14a59.72 59.72 0 0 1 7.28 20m-3.7 3.79s-2-7.57-6.49-11.25"/></g></g><path d="M239 151.31c.62-.87 2.08-1.74 2.75-.4a1.9 1.9 0 0 1-.31 2.26 1.77 1.77 0 0 1-2.26-.13 1.11 1.11 0 0 1-.22-.21.77.77 0 0 1-.21-.23 1.25 1.25 0 0 1 .25-1.29z" class="D"/><g class="E F"><path d="M250.47 146.51s5.94-16.82 6.5-32.66l5.28-11.21s6.69-4.13 10.59-2.79m19.4 9.54s-9.38 10-15.82 14c-7 4.39-12.68 6.41-21.29 5.65"/><path d="M280.5 112s-17.39 2-23.54 7m2.96-11s6.47 3 7.54 6.28"/><path d="M276.91 106.69s-10.14 3.1-11.3 5.12m9.14-9.34s-7.71 2.65-11.61 7.24m-10.24 45.52c1.27-7-11-16-7.7-23.35l-7 12.49c8.53 5.31 8.62 12 8.62 12m-19.65 23.31c6.09-7.06 3.14-21.37 7.84-30.78"/><path d="M252.73 155.52c-5.94-.67-13.15 5.58-19.46 4.64m1.42-7.5a8 8 0 0 1 5.54 6.19m6.29-17.85l-5.38 5.11m8.42-.57s-2.9 3.4-5.66 3.44m8.16 1.8s-4.64 2.71-6.12 2.19m28.23-19.37a59.58 59.58 0 0 0-21 3.7m-1.39 5.09s7.54-2.07 13 0m21.75-52.99s-8.06-8.46-4.48-17.07 10.54-8.93 16.88-24.9-3-25.13-3-25.13 8 10.71 1.47 23c-8.13 15.36-24.41 15.12-30 25.49-2.39 4.43-1.82 7.32.05 10.62m21.13 7.39s-.25 11.56 9.31 16.21m-5.11-20.47s1.71 12.15 10.05 11.91M297.31 79s1.5 12.84 6.87 10.45m-2.88-14.89s.3 7.5 4.43 5m17.1-35.97a5.89 5.89 0 0 1-.91 4.12c-3.36 6-14.16 3.52-21.53 12-5.27 6.06-5.65 15.93-4.33 19.8m6.33-6.84a10.35 10.35 0 0 1 2.09-12.36c5.86-5.8 15.79-6.19 18.29-10.52s.36-6 .36-6m-56.8-23.4s5.45 2.18 5.89 8.05-4.22 17.37 7.85 26.77m-13.49-34.4s3.81 3 3.29 6.81c-1.45 10.77-14.07 16.7-9.12 26.06m6.56-10.79s.81 7.5-3.94 12.55-17.94 16-16.05 26m8.56.89c-.61-2.27-.84-10.16 4.88-18.54s9.38-14.69 6.65-21.42m69.74 14.97c-3.82 7 .16 20.8-9.54 29.6"/><path d="M337.15 57.34c-3.12 6.85-15.51 13.89-17.78 21.9m-11.58-4.47c4.55-7.93 19.86-6.14 29.53-18.17M249.48 32c-4.65 14.45 6.87 20.85 3.52 27.65m-17.73.05c-1-11.7 10.52-17.7 14.29-28.21"/><path d="M244.87,65c-4.29-7.82.67-26.17,4.93-33.79"/></g><g class="D"><path d="M181.18 227a33 33 0 0 0 14.82 8.32m-38.76 86.04a.84.84 0 0 0 .59 1 1.63 1.63 0 0 0 1.46-.27.85.85 0 0 0-.43-1.58.68.68 0 0 0-.29-.05 1.31 1.31 0 0 0-1.33.9zm-6.92-.28a1.37 1.37 0 0 0-.15.79 1.23 1.23 0 0 0 1.58.91 1.27 1.27 0 0 0 .23-.12 1 1 0 0 0 .45-.21 1.29 1.29 0 0 0 .33-1.2 1.1 1.1 0 0 0 0-.26 1.43 1.43 0 0 0-2.12-.85.73.73 0 0 0-.32.94zm-6.05-.46a.41.41 0 0 0-.05.09 1.71 1.71 0 1 0 3.19 1.22 2.62 2.62 0 0 0-.63-2.29 1.5 1.5 0 0 0-2.51.98zm-8.82 1.17a2.2 2.2 0 0 0 2.74.85 3.15 3.15 0 0 0 1.6-.79 2.84 2.84 0 0 0 .11-3.94c-2.21-2.42-6.14 1.33-4.45 3.88zm-7.88-17.56a.85.85 0 0 1-1.16 0 1.59 1.59 0 0 1-.5-1.4.85.85 0 0 1 1.58-.42.82.82 0 0 1 .19.22 1.33 1.33 0 0 1-.11 1.6zm3.7 5.85a1.29 1.29 0 0 1-.61.52 1.23 1.23 0 0 1-1.58-.91 2.09 2.09 0 0 1 0-.25 1 1 0 0 1 0-.51 1.3 1.3 0 0 1 .87-.88 1.2 1.2 0 0 1 .23-.11 1.43 1.43 0 0 1 1.8 1.4.73.73 0 0 1-.71.74zm3.42 5.01l-.05.09a1.61 1.61 0 0 1-2.08.5A1.58 1.58 0 0 1 132 313a2.62 2.62 0 0 1 2.3-.6 1.5 1.5 0 0 1 .39 2.69z"/><path d="M193.74 228.49a3.11 3.11 0 0 0-.2.61.79.79 0 0 0 1 .94 2 2 0 0 0 1.38-.86 1.8 1.8 0 0 0 .08-1.25v-.2a.52.52 0 0 0-.16-.34.9.9 0 0 0-1.45-.32 4.09 4.09 0 0 0-.51.67.83.83 0 0 0-.14.75zm-5.54-2.98a.83.83 0 0 0 0 .41c0 .11-.11.21-.16.33a1 1 0 0 0 .71 1.2 2.18 2.18 0 0 0 1.49-.06 1.19 1.19 0 0 0 .53-.74 3.11 3.11 0 0 0 0-.32l.07-.35a1.1 1.1 0 0 0-.5-1.18 1.43 1.43 0 0 0-2.14.71zm3.42-2.87a1 1 0 0 0 .78 1 1.36 1.36 0 0 0 1.52-.55 3.07 3.07 0 0 0 .17-.38 1.1 1.1 0 0 0 0-1.18.58.58 0 0 0-.72-.47h-.17a1 1 0 0 0-.25 0 1.27 1.27 0 0 0-.65.13 1.46 1.46 0 0 0-.68 1.45zm4.09-1.97a1.17 1.17 0 0 0 .33.63 1 1 0 0 0 1.19.16 1 1 0 0 0 .46-1.11q-.09.17 0 0v-.2a.63.63 0 0 0-1-.64 1 1 0 0 0-.98 1.16zM194.2 217a1 1 0 0 0 1.16.51 1.42 1.42 0 0 0 .83-.71.66.66 0 0 0-.4-1 1 1 0 0 0-.3 0 .66.66 0 0 0-.3-.13c.28 0-.1-.09-.22-.1a.71.71 0 0 0-.49.11 1 1 0 0 0-.28 1.32zm3.59-2.27a1 1 0 0 0 1.39.39 1.87 1.87 0 0 0 .64-.7l.08-.19v-.1a.83.83 0 0 0-.09-1c.16.19-.06-.09-.1-.13a1 1 0 0 0-.6-.28 1.35 1.35 0 0 0-.86.14 1.42 1.42 0 0 0-.46 1.87zm-.79 8.39h0z"/><path d="M195.77 224.34a1.67 1.67 0 0 0 .67.9 1.14 1.14 0 0 0 1.66-.7 1.08 1.08 0 0 0-.14-.85h0a1 1 0 0 0-.57-.5l-.46-.1c-.62-.09-1.44.49-1.16 1.25zm-7.7-2.08h.07a1.14 1.14 0 0 0 1.47-.29.76.76 0 0 0 .16-1.37l-.17-.11a1.16 1.16 0 0 0-1.9.16v.07a1.11 1.11 0 0 0 .37 1.54zm-4.13 2.44h0a.8.8 0 0 0 .8.47 1.31 1.31 0 0 0 .39 0 1.06 1.06 0 0 0 .76-.76c0-.12.07-.24.1-.35s.17-.42 0-.11a.94.94 0 0 0-1.46-1.13c-.46.48-.95 1.25-.59 1.88zm4.78-7.55a1.33 1.33 0 0 0 1.25 1.47 1.42 1.42 0 0 0 .77-.26 1.26 1.26 0 0 0 .36-.33.7.7 0 0 0 .19-.36c-.07.14-.07.17 0 .08a.88.88 0 0 0-.31-1.17 1.18 1.18 0 0 0-.78-.21h0a1.22 1.22 0 0 0-.6-.09.88.88 0 0 0-.88.87zm3.37 2.38a1 1 0 0 0 1.44.42c.37-.07.71-.46.55-.83a2.35 2.35 0 0 0-.22-.45.94.94 0 0 0-.81-.47H193a1 1 0 0 0-.91 1.33zm.02-4.84a1.08 1.08 0 0 0 1.33.77 1.3 1.3 0 0 0 .86-.65 1.74 1.74 0 0 0 .14-.38c0-.05.12-.48.06-.28a.89.89 0 0 0-.86-1.1 1.24 1.24 0 0 0-.46.08.78.78 0 0 0-.37 0c-.7.2-.81.96-.7 1.56zm3.75-4.24c-.22.83.65 1.32 1.34 1.35 1.13 0 1.42-1.86.26-2a2.77 2.77 0 0 0-.49 0h-.12a.93.93 0 0 0-.99.65zm4.86-2.27a.9.9 0 0 0 .63 1.07.87.87 0 0 0 .36.05.8.8 0 0 0 .67-1.21v-.07a.64.64 0 0 0-1-.77 2.36 2.36 0 0 0-.66.93zm-10.53 22.24a1.113 1.113 0 0 0 1.11-1.93 1.113 1.113 0 0 0-1.11 1.93zm-13.48 30.82c-.45 1-.46 2.66 1 2.57a1.89 1.89 0 0 0 1.79-1.39 1.78 1.78 0 0 0-1.24-1.9.84.84 0 0 0-.29-.08.82.82 0 0 0-.31-.07c-.44.01-.77.47-.95.87z"/></g><g class="E"><path d="M119.28,298c-.45,10.28,13.19,12.89,11.49,33.35,17.85-10.47,26.65-2.24,35.61-5.75l-2.95-8.76s-12.7,2.37-21.83-2.9-14-17.81-14-17.81Z"/><g class="F"><path d="M166.38 325.56s2.87 13.1-7.36 20.33-17.16 9.72-17.73 20.95c0 0-6.21-6.32.36-18.13s6.81-18.15 3.16-22.64m-.65 17.31c-6.31 8.91-23.65 7.7-30.93 23.31a24.92 24.92 0 0 0-.12 20s-11.79-7.49-7.8-22c4.14-15 15.7-25 8.86-38.89m14.49-9.47s-7.28.76-11.83 5.64-10.2 16.91-21.22 18.49a25.1 25.1 0 0 0 7.5-15.73c.41-5 1.45-13 4.58-18.43s11.59-8.3 11.59-8.3m-11.19 59.05c-4.58 4.14-13.6 1.85-17.79 2.54-3.35.55-4.47 3.81-5.12 5.45a8.55 8.55 0 0 1-.39-10.33c2.82-4.14 9.17-3.8 14.06-7.32s3.68-9.54 3.68-9.54m19.66 18.82s8.6 1.85 9.27 10.46-2.3 16.23 11.4 21.25c-2.47-2.73-4.24-6.07-.51-11.85s9.82-5.29 12.5-11.68m-60.01-15.36c-3.4-1.05-17.42-4.52-24 2.09 2.5-9.82-3.6-19.26 1.61-30.54m103.85 36.77s1 4.13-7.68 9.94-10.24 9.25-10.24 9.25c.44-12-10.35-17.09-7.24-25.74m27.14-77.72s-11.59 13.56-25 22l-7.07 10.17s-.24 7.86 2.88 10.57m17.91 12s3.94-13.11 4.24-20.72c.31-8.22-.79-14.18-5.75-21.26m-2.06 30.5s-7-16.05-5.66-23.92m-8.16 8.12s5.8 4.12 9.21 3.39"/><path d="M157 316.35S154.63 306 155.8 304m-3.52 12.6s-1.56-8 .46-13.68m34.31-31.63c-5.45 4.61-19.4-1.53-24.07 5l7.29-12.29c8.86 4.73 14.71 1.46 14.71 1.46m10.38-28.68c-3.07 8.81-16.39 13.73-22.19 22.5"/><path d="M187.22 271c-3.56-4.81-1.75-14.19-5.72-19.18m-5.78 4.98a8 8 0 0 0 8.12 1.71m-12.29 14.37l1.74-7.23m3.71 7.59s1.49-4.2.14-6.62m5.63 6.17s0-5.37-1.16-6.4M179 300.53a59.72 59.72 0 0 1-7.28-20m3.65-3.79s2 7.57 6.49 11.25"/></g></g><path d="M169.16 256.88c-.62.86-2.08 1.73-2.75.39a1.9 1.9 0 0 1 .31-2.26 1.77 1.77 0 0 1 2.26.13 1.11 1.11 0 0 1 .22.21.91.91 0 0 1 .21.23 1.27 1.27 0 0 1-.25 1.3z" class="D"/><g class="E F"><path d="M157.71 261.67s-5.94 16.82-6.5 32.66l-5.28 11.21s-6.69 4.13-10.59 2.79m-19.4-9.54s9.38-10 15.82-14c7-4.39 12.68-6.41 21.29-5.65m-25.37 17.02s17.39-2 23.54-7.06m-2.96 11.13s-6.47-3-7.54-6.28"/><path d="M131.27 301.49s10.14-3.1 11.3-5.12m-9.14 9.34s7.71-2.65 11.61-7.24M155.28 253c-1.27 7 11 16 7.7 23.35l7-12.49c-8.53-5.3-8.62-12-8.62-12M181 228.5c-6.09 7.06-3.14 21.37-7.84 30.78"/><path d="M155.45 252.66c5.94.67 13.16-5.58 19.46-4.64m-1.42 7.5a8 8 0 0 1-5.53-6.18m-6.3 17.82l5.38-5.11m-8.42.59s2.9-3.4 5.66-3.44m-8.16-1.8s4.64-2.71 6.12-2.19M134 274.58a59.58 59.58 0 0 0 21-3.7m1.4-5.09s-7.54 2.07-13 0m-21.75 52.99s8.06 8.46 4.48 17.07-10.54 8.93-16.88 24.9 3 25.13 3 25.13-8-10.71-1.47-23c8.13-15.36 24.41-15.12 30-25.49 2.39-4.43 1.82-7.32 0-10.62m-21.17-7.39s.24-11.56-9.32-16.21m5.11 20.47s-1.71-12.15-10.05-11.91m5.52 17.48s-1.5-12.85-6.87-10.46m2.88 14.87s-.3-7.5-4.43-5m-17.1 35.97a5.89 5.89 0 0 1 .91-4.12c3.36-6 14.16-3.52 21.53-12 5.27-6.06 5.65-15.93 4.33-19.8m-6.33 6.84a10.35 10.35 0 0 1-2.09 12.36c-5.86 5.8-15.79 6.19-18.29 10.52s-.36 6-.36 6m56.8 23.41s-5.45-2.18-5.89-8.06 4.26-17.37-7.85-26.77m13.49 34.4s-3.81-3-3.29-6.81c1.45-10.77 14.07-16.7 9.12-26.06m-6.56 10.79s-.81-7.5 3.94-12.55 17.94-15.95 16.05-26m-8.56-.89c.61 2.27.84 10.16-4.88 18.54s-9.38 14.69-6.65 21.42M71 350.84c3.82-6.95-.15-20.8 9.54-29.6"/><path d="M71 350.84c3.15-6.84 15.55-13.84 17.81-21.9m11.58 4.47c-4.55 7.93-19.85 6.14-29.53 18.17m87.84 24.58c4.65-14.45-6.87-20.85-3.52-27.65m17.73-.03c1 11.74-10.52 17.75-14.29 28.21"/><path d="M163.31,343.17c4.29,7.82-.67,26.17-4.93,33.8"/></g><g class="D"><path d="M235.37 195.73a33.29 33.29 0 0 0-3.2-7.61 32.3 32.3 0 0 0-5.44-7M303.3 126a.85.85 0 0 0 0-1.16 1.62 1.62 0 0 0-1.4-.5.85.85 0 0 0-.42 1.58.73.73 0 0 0 .23.19 1.31 1.31 0 0 0 1.59-.11zm5.85 3.66a1.31 1.31 0 0 0 .53-.61 1.23 1.23 0 0 0-.91-1.58 2.35 2.35 0 0 0-.26 0 1 1 0 0 0-.51 0 1.3 1.3 0 0 0-.88.88.82.82 0 0 0-.11.23 1.44 1.44 0 0 0 1.41 1.8.73.73 0 0 0 .73-.72zm5.01 3.42l.09-.05a1.62 1.62 0 0 0 .51-2.08 1.59 1.59 0 0 0-2.66-.57 2.62 2.62 0 0 0-.6 2.3 1.5 1.5 0 0 0 2.66.4zm8.22 3.4a2.2 2.2 0 0 0-1.94-2.11 3.21 3.21 0 0 0-1.79-.12 2.85 2.85 0 0 0-2.06 3.36c.7 3.21 5.98 1.92 5.79-1.13zm-1.95 19.15a.84.84 0 0 1 1 .59 1.63 1.63 0 0 1-.27 1.46.85.85 0 0 1-1.58-.43.84.84 0 0 1-.05-.29 1.31 1.31 0 0 1 .9-1.33zm-.28-6.92a1.37 1.37 0 0 1 .79-.15 1.23 1.23 0 0 1 .91 1.58 1.27 1.27 0 0 1-.12.23 1 1 0 0 1-.21.46 1.3 1.3 0 0 1-1.2.32 1.13 1.13 0 0 1-.26 0 1.43 1.43 0 0 1-.85-2.12.72.72 0 0 1 .94-.32zm-.45-6.05h.08a1.71 1.71 0 1 1 1.22 3.14 2.62 2.62 0 0 1-2.29-.63 1.51 1.51 0 0 1 .99-2.51zm-94.45 45.48a3.28 3.28 0 0 0 .48-.43.78.78 0 0 0-.35-1.29 2 2 0 0 0-1.62.05 1.74 1.74 0 0 0-.7 1.05l-.11.17a.47.47 0 0 0 0 .37.9.9 0 0 0 1.1 1 4.45 4.45 0 0 0 .78-.33.81.81 0 0 0 .42-.59zm3.31 5.34a.67.67 0 0 0 .23-.33l.3-.21a1 1 0 0 0 0-1.4 2.16 2.16 0 0 0-1.32-.69 1.15 1.15 0 0 0-.83.38c-.07.08-.13.17-.19.25l-.23.27a1.11 1.11 0 0 0-.17 1.28 1.43 1.43 0 0 0 2.21.45zm-4.39.78A1.06 1.06 0 0 0 224 193a1.36 1.36 0 0 0-1.6-.29 2.05 2.05 0 0 0-.33.25 1.18 1.18 0 0 0-.47.47 1.16 1.16 0 0 0-.12.55.58.58 0 0 0 .39.77l.15.06a.84.84 0 0 0 .23.12 1.25 1.25 0 0 0 .62.22 1.51 1.51 0 0 0 1.3-.89zm-4.54-.34a1.08 1.08 0 0 0 0-.71 1 1 0 0 0-.94-.73 1 1 0 0 0-1 .73c.11-.07.11-.05 0 0l-.13.16a.62.62 0 0 0 .53 1 1 1 0 0 0 1.54-.45z"/><path d="M219.13 197.82a1 1 0 0 0-.75-1 1.44 1.44 0 0 0-1.07.2.66.66 0 0 0-.14 1 1.32 1.32 0 0 0 .25.16.59.59 0 0 0 .2.26c-.23-.15 0 .13.14.2a.74.74 0 0 0 .48.15 1 1 0 0 0 .89-.97zm-4.26.18a1 1 0 0 0-1-1 1.68 1.68 0 0 0-.9.28l-.17.12-.08.07a.85.85 0 0 0-.41.91c-.05-.24 0 .1 0 .16a1 1 0 0 0 .37.55 1.36 1.36 0 0 0 .83.3 1.42 1.42 0 0 0 1.36-1.39zm4.9-6.83h0z"/><path d="M221.42 190.71a1.65 1.65 0 0 0-.13-1.11 1.15 1.15 0 0 0-1.79-.23 1.11 1.11 0 0 0-.3.81h0a1.12 1.12 0 0 0 .24.72l.35.31c.51.38 1.5.3 1.63-.5zm5.63 5.65v-.06a1.14 1.14 0 0 0-1.42-.49.77.77 0 0 0-.83 1.11l.09.18a1.17 1.17 0 0 0 1.73.81h.07a1.12 1.12 0 0 0 .36-1.55zm4.79-.05a.06.06 0 0 0 0 0h0a.8.8 0 0 0-.45-.81 1.09 1.09 0 0 0-.36-.17 1.06 1.06 0 0 0-1 .28l-.26.25c-.07.07-.36.28-.08.08a.93.93 0 0 0 .7 1.7c.61-.18 1.45-.64 1.45-1.33zm-7.91 4.16a1.34 1.34 0 0 0-.35-1.91 1.44 1.44 0 0 0-.79-.15 1.58 1.58 0 0 0-.48.1.87.87 0 0 0-.35.22q.21-.14.06-.06a.87.87 0 0 0-.31 1.16 1.15 1.15 0 0 0 .57.58h0a1.26 1.26 0 0 0 .47.38.88.88 0 0 0 1.18-.32zm-1.72-3.75a1 1 0 0 0-1.05-1.09.67.67 0 0 0-.89.45 2.8 2.8 0 0 0 0 .5.93.93 0 0 0 .47.81h.08a1 1 0 0 0 1.39-.67zm-2.44 4.18a1.1 1.1 0 0 0-.77-1.34 1.4 1.4 0 0 0-1.08.14 1.48 1.48 0 0 0-.3.26l-.19.21a.88.88 0 0 0 .19 1.38 1.12 1.12 0 0 0 .44.17.94.94 0 0 0 .33.17c.7.19 1.18-.41 1.38-.99zm-5.37 1.8c.6-.61.1-1.47-.49-1.84-1-.61-2.15.9-1.22 1.61a2.86 2.86 0 0 0 .4.28l.11.05a.93.93 0 0 0 1.2-.1zm-5.34-.47a.91.91 0 0 0 0-1.24 1.23 1.23 0 0 0-.29-.22.8.8 0 0 0-1.19.71l-.06.05a.63.63 0 0 0 .47 1.16 2.32 2.32 0 0 0 1.07-.46zm20.24-13.99a1.12 1.12 0 0 0-1.94 1.11 1.12 1.12 0 0 0 1.94-1.11zm27.08-19.95c.86-.61 1.73-2.07.39-2.75a1.92 1.92 0 0 0-2.26.31 1.79 1.79 0 0 0 .13 2.27.84.84 0 0 0 .21.21 1 1 0 0 0 .23.22 1.3 1.3 0 0 0 1.3-.26z"/></g><g class="E"><path d="M324.47,165.2c5.53-8.68-5-17.76,6.73-34.63-20.7.15-24.21-11.38-33.71-12.82l-1.83,9.06s12.18,4.3,17.45,13.43,3.25,22.44,3.25,22.44Z"/><g class="F"><path d="M297.49 117.75S301.55 105 314 103.82s19.72.16 25.82-9.27c0 0 2.22 8.57-9.38 15.51s-15 12.32-14.05 18m9.25-14.63c9.91-4.57 24.33 5.15 38.44-4.73a24.9 24.9 0 0 0 10.08-17.22s6.47 12.38-4.23 22.93c-11.11 11-26.09 13.79-27.12 29.25m-17.28.94s6.69 3 13.07 1 17.29-9.55 27.62-5.41a25.09 25.09 0 0 0-14.36 9.88c-2.83 4.09-7.77 10.54-13.18 13.67s-14.21 1.42-14.21 1.42"/><path d="M363.71 119.62c6-1.29 12.7 5.2 16.67 6.7 3.18 1.2 5.78-1.06 7.17-2.16a8.55 8.55 0 0 1-4.83 9.14c-4.52 2.18-9.84-1.29-15.84-.69s-7.95 6.42-7.95 6.42m-7.62-26.13s-6.52-5.9-2.8-13.69 10.11-12.9.75-24.1c.78 3.59.64 7.37-5.49 10.51s-11.14-.33-16.66 3.87"/><path d="M371.4 132.79c2.43 2.61 12.83 12.63 21.81 10.19-7.07 7.25-6.51 18.48-16.66 25.64M305 84.86s1.19-4.09 11.62-4.77 13.48-2.86 13.48-2.86c-6.37 10.16.43 20-6.59 25.91m-62.34 53.71s16.82-5.95 32.66-6.51l11.17-5.28s4.13-6.68 2.79-10.59m-9.5-19.4s-10 9.38-14 15.83c-4.39 7-6.41 12.67-5.65 21.28"/><path d="M295.66 126.81s-2 17.39-7.06 23.54m11.13-2.96s-3-6.46-6.28-7.53"/><path d="M301 130.41s-3.1 10.13-5.12 11.3m9.33-9.15s-2.65 7.72-7.24 11.61m-45.52 10.24c7-1.27 16 11 23.35 7.7l-12.49 7c-5.3-8.52-12-8.62-12-8.62M228 180.15c7.06-6.1 21.05-3.7 30.46-8.4"/><path d="M252.16 154.58c.67 5.94-5.58 13.16-4.64 19.47m7.48-1.42a8 8 0 0 0-6.18-5.54m17.84-6.3l-5.11 5.39m.59-8.42s-3.4 2.89-3.44 5.66m-1.8-8.16s-2.71 4.63-2.19 6.12m19.37-28.24a59.58 59.58 0 0 1-3.7 21m-5.09 1.39s2.07-7.54 0-13"/></g></g><path d="M260.74 175.84c1-.44 2.66-.46 2.57 1a1.91 1.91 0 0 1-1.39 1.8 1.78 1.78 0 0 1-1.9-1.25 6.57 6.57 0 0 1-.15-.6c.01-.44.47-.79.87-.95z" class="D"/><g class="E F"><path d="M273 177.42s13.56-11.6 22-25l10.17-7.06s7.86-.24 10.57 2.87m12.04 17.92s-13.11 3.95-20.72 4.24c-8.22.32-14.18-.79-21.26-5.75"/><path d="M316.3 162.57s-16.05-7-23.92-5.66m8.13-8.16s4.12 5.8 3.39 9.2"/><path d="M315.85 156.15s-10.33-2.38-12.35-1.22m12.6-3.52s-8-1.55-13.68.47m-31.63 34.3c4.61-5.44-1.53-19.39 5-24.07l-12.34 7.3c4.73 8.85 1.46 14.7 1.46 14.7m-28.63 10.38c8.81-3.07 13.41-16.93 22.18-22.74"/><path d="M270.5 186.35c-4.81-3.55-14.19-1.74-19.18-5.72m4.98-5.78A8 8 0 0 1 258 183m14.38-12.32l-7.23 1.74m7.59 3.7s-4.2 1.49-6.62.14m6.17 5.64s-5.37 0-6.4-1.16m34.11-2.66a60 60 0 0 0-20-7.28m-3.76 3.71s7.57 2 11.25 6.48M332.83 146s-2.75-11.36 4.66-17 13.59-2.46 27.06-13.12 9.95-23.28 9.95-23.28 1.53 13.26-10.22 20.63c-14.73 9.24-28.7.9-38.74 7.08-4.29 2.64-5.24 5.43-5.26 9.22m14.62 16.95s-6 9.9 0 18.7m5.77-20.28s-4.59 11.38 2.75 15.34m3.96-17.89s-5.12 11.87.72 12.49m4.9-14.33s-3.49 6.66 1.36 6.52m32.81-22.57a5.89 5.89 0 0 1-2.85 3.12c-5.91 3.51-14-4-24.62-.4-7.6 2.61-12.86 11-13.65 15m8.88-2.76a10.35 10.35 0 0 1 8-9.65c8-2.09 16.77 2.53 21.1 0s3.32-5 3.32-5m-37.5-48.65s3.62 4.61 1.07 9.92-12.38 12.96-6.59 27.11m5.51-36.54s1.81 4.5-.55 7.55c-6.64 8.6-20.54 7.42-20.92 18m11.07-6.07s-3.05 6.9-9.69 8.91-23.51 4.84-26.89 14.48m6.96 5.06c.61-2.27 4.35-9.22 13.5-13.62s15.47-8 16.47-15.23m52.91 47.84c-6.79 4.11-10.27 18.09-23.06 20.86"/><path d="M392.7 143.53c-6.12 4.37-20.38 4.28-26.35 10.07m-7.8-9.6c7.91-4.6 20.27 4.6 34.66-1m-63.77-65.24C318.18 88 325 99.26 318.66 103.47m-15.37-8.84c5-10.66 18-10.11 26.48-17.28"/><path d="M308.94,104c.2-8.92,13.68-22.33,21.17-26.8"/></g><g class="D"><path d="M172.81 212.45a33.29 33.29 0 0 0 3.2 7.61 32.6 32.6 0 0 0 5.44 7m-76.57 55.16a.85.85 0 0 0 0 1.16 1.62 1.62 0 0 0 1.4.5.85.85 0 0 0 .42-1.58.73.73 0 0 0-.23-.19 1.31 1.31 0 0 0-1.59.11zm-5.88-3.7a1.18 1.18 0 0 0 .39 2.19 2.09 2.09 0 0 0 .25 0 1 1 0 0 0 .51 0 1.3 1.3 0 0 0 .88-.87 1.2 1.2 0 0 0 .11-.23 1.44 1.44 0 0 0-1.41-1.81.73.73 0 0 0-.73.72zm-5-3.42h-.09a1.62 1.62 0 0 0-.51 2.08 1.59 1.59 0 0 0 2.66.57 2.62 2.62 0 0 0 .6-2.3 1.5 1.5 0 0 0-2.66-.35zm-8.2-3.4a2.2 2.2 0 0 0 1.94 2.11 3.21 3.21 0 0 0 1.79.12 2.85 2.85 0 0 0 2.06-3.36c-.7-3.21-5.98-1.92-5.79 1.13zm1.95-19.15a.84.84 0 0 1-1-.59 1.63 1.63 0 0 1 .25-1.46.85.85 0 0 1 1.58.43.84.84 0 0 1 .05.29 1.31 1.31 0 0 1-.88 1.33zm.25 6.92a1.37 1.37 0 0 1-.79.15 1.23 1.23 0 0 1-.91-1.58 1.27 1.27 0 0 1 .12-.23 1 1 0 0 1 .21-.45 1.28 1.28 0 0 1 1.2-.33 1.13 1.13 0 0 1 .26 0 1.44 1.44 0 0 1 .85 2.13.73.73 0 0 1-.94.31zm.49 6.05l-.09.05a1.71 1.71 0 1 1-1.22-3.19 2.62 2.62 0 0 1 2.29.63 1.51 1.51 0 0 1-.98 2.51z"/><path d="M182.93 220a3.89 3.89 0 0 0-.48.43.78.78 0 0 0 .35 1.29 2 2 0 0 0 1.62 0 16.69 16.69 0 0 0 .81-1.22.47.47 0 0 0 0-.37.9.9 0 0 0-1.1-1 4.36 4.36 0 0 0-.77.33.8.8 0 0 0-.43.54zm-3.31-5.3a.67.67 0 0 0-.23.33l-.3.21a1 1 0 0 0 0 1.4 2.16 2.16 0 0 0 1.32.69 1.15 1.15 0 0 0 .83-.38c.07-.08.13-.17.19-.25l.23-.27a1.11 1.11 0 0 0 .17-1.28 1.43 1.43 0 0 0-2.21-.45zm4.38-.78a1.06 1.06 0 0 0 .17 1.26 1.36 1.36 0 0 0 1.6.29 3.29 3.29 0 0 0 .34-.25 1.22 1.22 0 0 0 .46-.47 1.14 1.14 0 0 0 .12-.55.57.57 0 0 0-.39-.76l-.15-.07a.94.94 0 0 0-.22-.12 1.32 1.32 0 0 0-.63-.22 1.51 1.51 0 0 0-1.3.89zm4.55.34a1.08 1.08 0 0 0 0 .71 1 1 0 0 0 .94.73 1 1 0 0 0 1-.73c-.11.07-.11.06 0 0l.13-.16a.62.62 0 0 0-.53-1 1 1 0 0 0-1.54.45zm.5-3.9a1 1 0 0 0 .75 1 1.44 1.44 0 0 0 1.07-.2.65.65 0 0 0 .14-1 1 1 0 0 0-.25-.17.59.59 0 0 0-.2-.26c.24.15 0-.13-.13-.19a.74.74 0 0 0-.49-.16 1 1 0 0 0-.89.98zm4.26-.2a1 1 0 0 0 1 1 1.82 1.82 0 0 0 .91-.27l.16-.13.08-.07a.83.83 0 0 0 .41-.91c.05.24 0-.1 0-.16a1 1 0 0 0-.37-.54 1.31 1.31 0 0 0-.83-.31 1.42 1.42 0 0 0-1.36 1.39zm-4.9 6.84h0z"/><path d="M186.76 217.47a1.65 1.65 0 0 0 .13 1.11 1.15 1.15 0 0 0 1.79.23 1.11 1.11 0 0 0 .3-.81h0a1.06 1.06 0 0 0-.24-.72l-.35-.31a1 1 0 0 0-1.63.5zm-5.63-5.65v.06a1.14 1.14 0 0 0 1.42.49.77.77 0 0 0 .83-1.11l-.09-.18a1.17 1.17 0 0 0-1.73-.81h-.07a1.12 1.12 0 0 0-.36 1.55zm-4.79.05a.06.06 0 0 0 0 0h0a.8.8 0 0 0 .45.81 1.35 1.35 0 0 0 .36.18 1.09 1.09 0 0 0 1-.29l.26-.25c.07-.07.36-.28.08-.08a.93.93 0 0 0-.7-1.7c-.64.18-1.45.6-1.45 1.33zm7.91-4.16a1.34 1.34 0 0 0 .35 1.91 1.44 1.44 0 0 0 .79.15 1.58 1.58 0 0 0 .48-.1.87.87 0 0 0 .35-.22q-.21.13-.06.06a.87.87 0 0 0 .31-1.16 1.15 1.15 0 0 0-.57-.58h0a1.26 1.26 0 0 0-.47-.38.88.88 0 0 0-1.18.32zm1.75 3.75a1 1 0 0 0 1.05 1.09.67.67 0 0 0 .89-.45 2.1 2.1 0 0 0 0-.5.93.93 0 0 0-.47-.81h-.08a1 1 0 0 0-1.39.67zm2.41-4.18a1.1 1.1 0 0 0 .77 1.34 1.4 1.4 0 0 0 1.08-.14 1.81 1.81 0 0 0 .3-.25l.2-.22a.89.89 0 0 0-.2-1.38 1 1 0 0 0-.44-.16.82.82 0 0 0-.33-.18c-.7-.19-1.18.41-1.38.99zm5.37-1.8c-.6.61-.1 1.47.49 1.84 1 .61 2.15-.9 1.22-1.61a2.86 2.86 0 0 0-.4-.28l-.1-.05a.94.94 0 0 0-1.21.1zm5.34.52a.91.91 0 0 0 0 1.24 1.11 1.11 0 0 0 .3.22.79.79 0 0 0 1.18-.71h.06a.63.63 0 0 0-.47-1.16 2.32 2.32 0 0 0-1.07.41zm-20.23 13.94a1.113 1.113 0 0 0 1.93-1.11 1.113 1.113 0 0 0-1.93 1.11zm-27.08 19.95c-.87.61-1.74 2.08-.4 2.75a1.92 1.92 0 0 0 2.26-.31 1.79 1.79 0 0 0-.13-2.27.84.84 0 0 0-.21-.21.66.66 0 0 0-.23-.21 1.25 1.25 0 0 0-1.29.25z"/></g><g class="E"><path d="M83.71,243c-5.53,8.68,5,17.76-6.73,34.63,20.7-.15,24.21,11.38,33.71,12.82l1.84-9.06s-12.19-4.3-17.46-13.43-3.25-22.44-3.25-22.44Z"/><g class="F"><path d="M110.69 290.43s-4.06 12.79-16.54 13.93-19.72-.16-25.82 9.27c0 0-2.22-8.57 9.38-15.51s15-12.32 14.05-18m-9.21 14.63c-9.92 4.57-24.34-5.15-38.44 4.73A24.88 24.88 0 0 0 34 316.7s-6.47-12.38 4.23-22.93c11.11-11 26.09-13.79 27.12-29.25m17.3-.94s-6.69-3-13.07-1S52.29 272.09 42 268a25.09 25.09 0 0 0 14.36-9.88c2.83-4.09 7.77-10.54 13.18-13.67S83.71 243 83.71 243"/><path d="M44.47 288.56c-6 1.29-12.7-5.2-16.67-6.7-3.18-1.2-5.78 1.06-7.17 2.16a8.56 8.56 0 0 1 4.83-9.14c4.52-2.18 9.84 1.29 15.85.69s7.94-6.42 7.94-6.42m7.62 26.13s6.52 5.9 2.8 13.69-10.11 12.9-.75 24.1c-.78-3.59-.64-7.37 5.49-10.51s11.14.33 16.66-3.87m-44.29-43.3C34.35 272.78 24 262.76 15 265.2c7-7.2 6.48-18.48 16.63-25.64m71.54 83.76s-1.19 4.09-11.62 4.77S78.07 331 78.07 331c6.37-10.16-.43-20 6.59-25.91M147 251.33s-16.82 5.95-32.66 6.51l-11.21 5.28s-4.13 6.68-2.79 10.59m9.55 19.4s10-9.38 14-15.83c4.39-7 6.41-12.67 5.65-21.28m-17.01 25.37s2-17.39 7-23.54m-11.08 2.96s3 6.46 6.28 7.53"/><path d="M107.19 277.78s3.1-10.14 5.12-11.31m-9.31 9.15s2.65-7.71 7.24-11.61m45.49-10.24c-7 1.27-16-11-23.35-7.7l12.49-7c5.31 8.52 12 8.62 12 8.62M180.18 228c-7.06 6.1-21.05 3.7-30.46 8.4"/><path d="M156 253.6c-.67-5.94 5.58-13.16 4.64-19.47m-7.48 1.42a8 8 0 0 0 6.19 5.54m-17.83 6.3l5.11-5.39m-.63 8.42s3.4-2.89 3.44-5.66m1.84 8.16s2.71-4.63 2.19-6.12M134.1 275a59.58 59.58 0 0 1 3.7-21m5.09-1.35s-2.07 7.54 0 13"/></g></g><path d="M147.44 232.34c-1 .44-2.66.46-2.57-1a1.91 1.91 0 0 1 1.39-1.8 1.79 1.79 0 0 1 1.9 1.25.84.84 0 0 1 .08.29.82.82 0 0 1 .07.31c-.01.44-.47.76-.87.95z" class="D"/><g class="E F"><path d="M135.14 230.77s-13.56 11.59-22 25L103 262.86s-7.86.25-10.57-2.87M80.4 242s13.11-3.95 20.72-4.24c8.22-.32 14.18.79 21.26 5.75m-30.5 2.11s16.06 7 23.92 5.66m-8.13 8.15s-4.12-5.8-3.39-9.2"/><path d="M92.33 252s10.33 2.39 12.35 1.22m-12.6 3.55s8 1.55 13.68-.47m31.63-34.3c-4.61 5.44 1.53 19.39-5 24.07l12.34-7.3c-4.73-8.85-1.46-14.7-1.46-14.7m28.63-10.38c-8.81 3.07-13.41 16.93-22.18 22.74"/><path d="M137.68 221.83c4.81 3.55 14.19 1.74 19.18 5.72m-4.98 5.78a8 8 0 0 1-1.71-8.12M135.8 237.5l7.23-1.74m-7.59-3.7s4.2-1.49 6.62-.14m-6.17-5.64s5.37 0 6.4 1.16m-34.14 2.66a60 60 0 0 0 20 7.28m3.79-3.7s-7.57-2-11.25-6.49m-45.34 35s2.75 11.36-4.66 17-13.59 2.46-27.06 13.12-10 23.28-10 23.28S32.15 302.36 43.9 295c14.73-9.24 28.7-.9 38.74-7.08 4.29-2.64 5.24-5.43 5.26-9.22m-14.62-17s6-9.89 0-18.7m-5.77 20.28s4.59-11.38-2.75-15.34m-3.96 17.89s5.12-11.87-.72-12.49m-4.94 14.33s3.49-6.65-1.36-6.52M21 283.72a5.89 5.89 0 0 1 2.85-3.12c5.91-3.51 14 4 24.62.4 7.6-2.6 12.86-11 13.65-15m-8.87 2.76a10.35 10.35 0 0 1-8 9.65c-8 2.09-16.77-2.53-21.1 0s-3.32 5-3.32 5m37.5 48.65s-3.62-4.61-1.07-9.92 12.38-12.91 6.59-27.14m-5.51 36.57s-1.8-4.5.55-7.55c6.65-8.6 20.54-7.42 20.92-18m-11.07 6.07s3.05-6.9 9.69-8.91 23.51-4.84 26.89-14.48m-6.96-5.06c-.61 2.27-4.35 9.22-13.5 13.62s-15.47 8-16.47 15.23m-52.91-47.84c6.79-4.11 10.27-18.09 23.06-20.86"/><path d="M15.48 264.65c6.12-4.37 20.39-4.28 26.35-10.07m7.8 9.65c-7.91 4.6-20.27-4.6-34.66 1m63.77 65.19c11.26-10.2 4.48-21.5 10.78-25.71m15.37 8.84c-5 10.66-18 10.11-26.48 17.28"/><path d="M99.24,304.15c-.2,8.92-13.68,22.33-21.17,26.8"/></g><g class="D"><path d="M235.36 212.49a32.93 32.93 0 0 0-.17-17m93.88-9.49a.84.84 0 0 0 .58-1 1.64 1.64 0 0 0-1-1.13.85.85 0 0 0-1.15 1.16.6.6 0 0 0 .1.27 1.3 1.3 0 0 0 1.47.7zm3.22 6.16a1.29 1.29 0 0 0 .76-.26 1.22 1.22 0 0 0 0-1.82.64.64 0 0 0-.22-.14.91.91 0 0 0-.41-.29 1.32 1.32 0 0 0-1.21.31 1.59 1.59 0 0 0-.21.15 1.43 1.43 0 0 0 .32 2.26.72.72 0 0 0 .97-.21zm2.63 5.47h.1a1.63 1.63 0 0 0 1.48-1.55 1.59 1.59 0 0 0-2-1.83 2.61 2.61 0 0 0-1.66 1.69c-.39 1.37 1.03 2.06 2.08 1.69zm5.42 7.05a2.19 2.19 0 0 0-.63-2.79 3.16 3.16 0 0 0-1.49-1 2.84 2.84 0 0 0-3.46 1.88c-1 3.12 4.24 4.65 5.58 1.91zm-11.27 15.61a.85.85 0 0 1 .58 1 1.62 1.62 0 0 1-1 1.13.85.85 0 0 1-1.15-1.16.6.6 0 0 1 .1-.27 1.31 1.31 0 0 1 1.47-.7zm3.22-6.13a1.3 1.3 0 0 1 .76.27 1.22 1.22 0 0 1 0 1.82 1.18 1.18 0 0 1-.22.14.89.89 0 0 1-.41.28 1.32 1.32 0 0 1-1.21-.31 1.53 1.53 0 0 1-.21-.14 1.44 1.44 0 0 1 .32-2.27.74.74 0 0 1 .97.21zm2.63-5.47h.1a1.62 1.62 0 0 1 1.48 1.55 1.59 1.59 0 0 1-2 1.82 2.61 2.61 0 0 1-1.66-1.69c-.39-1.37 1.03-2.03 2.08-1.68zm-104.53-7.83a3.38 3.38 0 0 0 .63-.14.78.78 0 0 0 .34-1.29 2 2 0 0 0-1.43-.77 1.8 1.8 0 0 0-1.12.56l-.19.09a.53.53 0 0 0-.21.31.9.9 0 0 0 .45 1.41 4 4 0 0 0 .84.11.8.8 0 0 0 .69-.28zm.2 6.28a.86.86 0 0 0 .41-.14h.37a1 1 0 0 0 .69-1.21c-.2-.47-.32-1-.8-1.26a1.2 1.2 0 0 0-.91-.09 1.85 1.85 0 0 0-.29.13l-.34.11a1.08 1.08 0 0 0-.77 1 1.42 1.42 0 0 0 1.64 1.46zm-4.2-1.52a1.07 1.07 0 0 0 .49-1.19 1.37 1.37 0 0 0-1.24-1 2.36 2.36 0 0 0-.42.05 1.25 1.25 0 0 0-.64.17 1.28 1.28 0 0 0-.38.42.59.59 0 0 0 0 .86.6.6 0 0 1 .09.13 1.1 1.1 0 0 0 .14.21 1.32 1.32 0 0 0 .44.51 1.49 1.49 0 0 0 1.52-.16zm-3.75-2.56a1.19 1.19 0 0 0 .38-.6 1 1 0 0 0-.46-1.11 1 1 0 0 0-1.19.15h0l-.19.07a.63.63 0 0 0-.07 1.17 1 1 0 0 0 1.53.32zm-2.39 3.12a1 1 0 0 0-.14-1.26 1.43 1.43 0 0 0-1-.36.66.66 0 0 0-.63.83 1 1 0 0 0 .13.27.57.57 0 0 0 0 .32c-.14-.25 0 .13 0 .24a.7.7 0 0 0 .35.37.94.94 0 0 0 1.29-.41zm-3.79-1.95a1 1 0 0 0-.36-1.4 1.86 1.86 0 0 0-.92-.21h-.21-.1a.85.85 0 0 0-.82.58c.08-.23 0 .09-.06.15a1.07 1.07 0 0 0 0 .66 1.38 1.38 0 0 0 .56.68 1.44 1.44 0 0 0 1.91-.46zm7.67-3.48h0c.01.04.01.03 0 0z"/><path d="M225.79 201.17a1.63 1.63 0 0 0 .44-1 1.14 1.14 0 0 0-1.43-1.09 1.1 1.1 0 0 0-.67.55h0a1 1 0 0 0-.14.74c0 .05.11.36.14.46a1 1 0 0 0 1.66.34zm2.05 7.71v-.08a1.14 1.14 0 0 0-1-1.13.76.76 0 0 0-1.26.54 1.48 1.48 0 0 0 0 .21 1.16 1.16 0 0 0 1.09 1.56h.08a1.11 1.11 0 0 0 1.09-1.1zm4.16 2.35h0a.81.81 0 0 0 0-.93 1.72 1.72 0 0 0-.22-.33 1.1 1.1 0 0 0-1.05-.27l-.35.08c-.1 0-.45.06-.11 0a.93.93 0 0 0-.25 1.82c.71.22 1.63.26 1.98-.37zm-8.91-.35a1.27 1.27 0 0 0 0-2.36 1.61 1.61 0 0 0-.47-.15.71.71 0 0 0-.41 0h.08c-.49-.05-.81.43-.85.85a1.18 1.18 0 0 0 .2.78h0a1.18 1.18 0 0 0 .22.57.89.89 0 0 0 1.23.31zm.38-4.12a1 1 0 0 0-.37-1.46.66.66 0 0 0-1-.06 2.79 2.79 0 0 0-.28.42.94.94 0 0 0 0 .93l.06.08a1 1 0 0 0 1.59.09zm-4.21 2.4a1.08 1.08 0 0 0 0-1.54 1.39 1.39 0 0 0-1-.41 1.85 1.85 0 0 0-.39.06c-.05 0-.47.14-.27.1a.89.89 0 0 0-.53 1.29 1.06 1.06 0 0 0 .31.36.84.84 0 0 0 .19.31 1.22 1.22 0 0 0 1.69-.17zm-5.55-1.16c.83-.23.82-1.23.5-1.84-.53-1-2.32-.29-1.86.78a3.07 3.07 0 0 0 .2.45l.07.09a.93.93 0 0 0 1.09.52zm-4.39-3a.89.89 0 0 0 .61-1.07.85.85 0 0 0-.14-.34.79.79 0 0 0-1.38 0h-.08a.63.63 0 0 0-.17 1.24 2.21 2.21 0 0 0 1.16.17zm24.53-2a1.12 1.12 0 0 0-2.24 0 1.12 1.12 0 0 0 2.24 0zm33.42-3.77c1.06-.1 2.54-.93 1.71-2.18a1.89 1.89 0 0 0-2.1-.86 1.77 1.77 0 0 0-1 2 .82.82 0 0 0 .08.29.63.63 0 0 0 .1.3 1.25 1.25 0 0 0 1.21.45z"/></g><g class="E"><path d="M327.79,230.6c9.13-4.75,4.57-17.87,23.14-26.62-18-10.22-15.27-22-22.79-28L322,183s8.4,9.81,8.4,20.36-8.4,21.05-8.4,21.05Z"/><g class="F"><path d="M328.14 176s9.92-9 21.29-3.79 17 10 27 4.87c0 0-2.36 8.54-15.87 8.75s-19.13 3.18-21.19 8.59m15.31-8.07c10.88 1 18.5 16.63 35.65 15.13a25 25 0 0 0 17.35-9.88s-.59 14-15.13 17.75c-15.1 3.93-29.49-1.11-38.11 11.77"/><path d="M339 213.29s4.3 5.94 10.8 7.44 19.75.37 26.62 9.12a25.09 25.09 0 0 0-17.37 1.38c-4.5 2.12-12 5.25-18.25 5.25s-13-5.88-13-5.88m56.76-19.85c5.88 1.9 8.4 10.85 11.09 14.13 2.16 2.63 5.53 2 7.28 1.72a8.54 8.54 0 0 1-8.75 5.5c-5-.37-7.87-6-13.37-8.52s-10.1 1.58-10.1 1.58"/><path d="M377.18 198.73s-2.7-8.37 4.42-13.25 15.21-6.13 12.71-20.5c-1.13 3.5-3.14 6.7-10 6.36s-9.48-5.86-16.36-5M384.63 226c.8 3.48 4.8 17.35 13.8 19.73-9.75 2.75-14.87 12.75-27.25 13.87m-20.07-108.31s3.07-2.94 12.45 1.69 13.1 4.26 13.1 4.26c-10.6 5.61-9.62 17.51-18.67 19.14m-80.85 15.34s17.54 3.26 31.54 10.69l12.35 1s6.92-3.72 7.71-7.77m1.44-21.54s-13.33 3.14-20.06 6.69c-7.29 3.84-11.89 7.77-15.54 15.6M322 183s-10.39 14-17.85 16.81m11.11 3s.67-7.08-1.66-9.67"/><path d="M324.85 188.73S317.1 196 314.76 196m12.67-3.29s-6.16 5.35-12.08 6.43m-44.54-13.89c6.72 2.41 8.37 17.56 16.37 18.34l-14.33-.15c-.34-10-6.09-13.46-6.09-13.46m-30 5.33c9.17-1.75 20.09 7.33 30.59 8"/><path d="M270.47 185.25c-2.38 5.48-11.41 8.6-13.74 14.54m7.2 2.52a8 8 0 0 0-2.59-7.89m18.59 3.46l-7.12 2.11m4.72-6.99s-4.39.81-5.81 3.18m2.52-7.97s-4.66 2.65-4.95 4.2m30.89-14.77A59.73 59.73 0 0 1 286.49 194m-5.12-1.37s5.56-5.49 6.5-11.24"/></g></g><path d="M267.27 208c1.06.1 2.54.93 1.71 2.18a1.89 1.89 0 0 1-2.1.86 1.77 1.77 0 0 1-1-2 .82.82 0 0 1 .08-.29.63.63 0 0 1 .1-.3 1.25 1.25 0 0 1 1.21-.45z" class="D"/><g class="E F"><path d="M277.14 215.47s17.54-3.26 31.54-10.7l12.35-1s6.92 3.72 7.71 7.77m1.44 21.54s-13.33-3.14-20.06-6.69c-7.29-3.84-11.89-7.77-15.54-15.6M322 224.23s-10.42-14.06-17.88-16.86m11.14-3s.67 7.08-1.66 9.67"/><path d="M324.85 218.45s-7.75-7.23-10.09-7.23m12.67 3.25s-6.16-5.35-12.08-6.43m-44.54 13.89c6.72-2.41 8.37-17.56 16.37-18.34l-14.33.15c-.34 10-6.09 13.46-6.09 13.46m-30-5.33c9.17 1.75 20.09-8 30.59-8.6"/><path d="M270.47 221.93c-2.38-5.48-11.41-8.6-13.74-14.54m7.2-2.52a8 8 0 0 1-2.59 7.89m18.59-3.46l-7.12-2.11m4.72 7s-4.39-.81-5.81-3.18m2.52 7.99s-4.66-2.66-4.95-4.21m30.89 14.75a59.73 59.73 0 0 0-13.69-16.31m-5.12 1.32s5.56 5.49 6.5 11.24m56.76-7.65s3.3-11.21 12.55-12.41 13 4.66 30 2.16 20.25-15.18 20.25-15.18-5.3 12.24-19.17 12.75c-17.37.65-25.3-13.57-37.08-13.23-5 .14-7.25 2.08-9.17 5.35m4.17 22.03s-10.14 5.57-9.38 16.18m15.2-14.67s-9.66 7.56-5.29 14.67m12.35-13.52s-10.38 7.72-5.63 11.17m11.45-9.93s-6.36 4-2.09 6.32m39.67-3.16a5.9 5.9 0 0 1-4 1.28c-6.87.08-10.12-10.51-21.12-12.66-7.89-1.55-16.63 3.06-19.32 6.15m9.04 2.07a10.36 10.36 0 0 1 11.75-4.37c7.94 2.18 13.25 10.58 18.25 10.58s5.4-2.7 5.4-2.7m-8.15-60.88s.83 5.81-4 9.13-17.17 5-19.26 20.18m23.01-28.88s-.69 4.79-4.25 6.25c-10.06 4.18-21.5-3.82-27.13 5.18m12.63.24s-6.1 4.45-12.85 2.87-22.78-7.56-30.53-.91m3.5 7.87c1.67-1.67 8.38-5.82 18.5-5.06s17.41.79 21.88-4.95m21.9 67.94c-7.93.16-17.94 10.53-30.4 6.54"/><path d="M397.71 246c-7.49.72-19.79-6.49-27.86-4.45m-1.92-12.31c9.15 0 15.25 14.12 30.5 16.49m-22.62-88.37c-14.85 3.2-14.63 16.38-22.19 16.88m-8.89-15.34c9.66-6.74 20.62.23 31.57-1.73"/><path d="M344.93,169.86c4.63-7.62,23-12.5,31.73-12.62"/></g><g class="D"><path d="M172.82 195.69a33 33 0 0 0-1 8.19 32.61 32.61 0 0 0 1.2 8.79m-93.91 9.48a.84.84 0 0 0-.58 1 1.64 1.64 0 0 0 1 1.13.85.85 0 0 0 1.15-1.16.6.6 0 0 0-.1-.27 1.3 1.3 0 0 0-1.47-.7zM75.89 216a1.29 1.29 0 0 0-.76.26 1.22 1.22 0 0 0 0 1.82.74.74 0 0 0 .22.14 1 1 0 0 0 .41.29 1.32 1.32 0 0 0 1.21-.31 1 1 0 0 0 .21-.15 1.43 1.43 0 0 0-.32-2.26.73.73 0 0 0-.97.21zm-2.63-5.45a.34.34 0 0 0-.1 0 1.61 1.61 0 0 0-1.48 1.55 1.59 1.59 0 0 0 2 1.82 2.61 2.61 0 0 0 1.66-1.69c.39-1.36-1.03-2.04-2.08-1.68z"/><path d="M67.84 203.5a2.2 2.2 0 0 0 .63 2.8 3.22 3.22 0 0 0 1.49 1 2.83 2.83 0 0 0 3.46-1.88c1-3.13-4.22-4.66-5.58-1.92zm11.27-15.61a.84.84 0 0 1-.58-1 1.64 1.64 0 0 1 1-1.13.85.85 0 0 1 1.15 1.16.6.6 0 0 1-.1.27 1.31 1.31 0 0 1-1.47.7zM75.89 194a1.3 1.3 0 0 1-.76-.27 1.22 1.22 0 0 1 0-1.82 1.64 1.64 0 0 1 .22-.14 1 1 0 0 1 .41-.28 1.32 1.32 0 0 1 1.21.31 1.53 1.53 0 0 1 .21.14 1.44 1.44 0 0 1-.32 2.27.74.74 0 0 1-.97-.21zm-2.63 5.49h-.1a1.62 1.62 0 0 1-1.48-1.55 1.59 1.59 0 0 1 2-1.82 2.61 2.61 0 0 1 1.66 1.69c.39 1.36-1.03 2.03-2.08 1.68zm104.53 7.83a3.38 3.38 0 0 0-.63.14.78.78 0 0 0-.34 1.29 2 2 0 0 0 1.43.77 1.8 1.8 0 0 0 1.12-.56l.19-.09a.53.53 0 0 0 .21-.31.9.9 0 0 0-.45-1.41 4 4 0 0 0-.84-.11.8.8 0 0 0-.69.28zm-.2-6.32a.86.86 0 0 0-.36.17h-.37a1 1 0 0 0-.68 1.21c.19.47.31 1 .79 1.26a1.15 1.15 0 0 0 .91.09 1.85 1.85 0 0 0 .29-.13l.34-.11a1.1 1.1 0 0 0 .78-1 1.43 1.43 0 0 0-1.7-1.49zm4.2 1.56a1.08 1.08 0 0 0-.49 1.19 1.37 1.37 0 0 0 1.25 1 2.34 2.34 0 0 0 .41 0 1.25 1.25 0 0 0 .64-.17 1.28 1.28 0 0 0 .38-.42.58.58 0 0 0 0-.86.6.6 0 0 1-.09-.13 1.1 1.1 0 0 0-.14-.21 1.23 1.23 0 0 0-.44-.5 1.47 1.47 0 0 0-1.52.1zm3.75 2.56a1.19 1.19 0 0 0-.38.6 1 1 0 0 0 .46 1.11 1 1 0 0 0 1.19-.15c-.12 0-.12 0 0 0l.19-.07a.63.63 0 0 0 .07-1.17 1 1 0 0 0-1.53-.32zm2.39-3.12a1 1 0 0 0 .14 1.26 1.43 1.43 0 0 0 1 .36.66.66 0 0 0 .63-.83 1 1 0 0 0-.13-.27.69.69 0 0 0 0-.32c.13.25 0-.13 0-.24a.7.7 0 0 0-.35-.37.94.94 0 0 0-1.29.41zm3.79 2a1 1 0 0 0 .37 1.4 1.81 1.81 0 0 0 .92.21h.2.11a.84.84 0 0 0 .81-.58c-.08.24 0-.09.06-.14a1.09 1.09 0 0 0-.05-.67 1.32 1.32 0 0 0-.56-.67 1.43 1.43 0 0 0-1.86.45zm-7.67 3.43h0c-.05-.04-.05-.03 0 0z"/><path d="M182.4 207a1.64 1.64 0 0 0-.45 1 1.14 1.14 0 0 0 1.43 1.09 1.1 1.1 0 0 0 .67-.55h0a1 1 0 0 0 .14-.74l-.14-.46c-.24-.53-1.14-.95-1.65-.34zm-2.06-7.7v.08a1.14 1.14 0 0 0 1 1.13.76.76 0 0 0 1.26-.54 1.48 1.48 0 0 0 0-.21 1.16 1.16 0 0 0-1.09-1.56h-.08a1.12 1.12 0 0 0-1.09 1.1zm-4.18-2.3h0a.78.78 0 0 0 0 .92 1.41 1.41 0 0 0 .23.33 1.08 1.08 0 0 0 1 .27l.35-.08c.1 0 .45-.06.11 0a.93.93 0 0 0 .25-1.82c-.65-.26-1.57-.3-1.94.38zm8.93.31a1.33 1.33 0 0 0-.64 1.82 1.32 1.32 0 0 0 .61.53 1.25 1.25 0 0 0 .46.15.75.75 0 0 0 .42 0q-.25 0-.09 0c.49.05.81-.43.86-.85a1.24 1.24 0 0 0-.21-.78h0a1.18 1.18 0 0 0-.22-.57.88.88 0 0 0-1.19-.3zm-.38 4.11a1 1 0 0 0 .37 1.46.66.66 0 0 0 1 .06 2.79 2.79 0 0 0 .28-.42.94.94 0 0 0 0-.93l-.06-.08a1 1 0 0 0-1.59-.09zm4.21-2.42a1.09 1.09 0 0 0 0 1.54 1.39 1.39 0 0 0 1 .41 1.76 1.76 0 0 0 .39-.06c.05 0 .47-.14.27-.1a.89.89 0 0 0 .53-1.29 1.06 1.06 0 0 0-.31-.36.84.84 0 0 0-.19-.31 1.22 1.22 0 0 0-1.69.17zm5.55 1.14c-.83.23-.82 1.23-.5 1.84.53 1 2.32.29 1.86-.78a3.62 3.62 0 0 0-.2-.45l-.07-.09a.93.93 0 0 0-1.09-.52zm4.39 3.08a.89.89 0 0 0-.61 1.07.85.85 0 0 0 .14.34.79.79 0 0 0 1.38 0h.08a.63.63 0 0 0 .17-1.24 2.32 2.32 0 0 0-1.16-.17zm-24.52 2a1.12 1.12 0 0 0 2.23 0 1.12 1.12 0 0 0-2.23 0zM140.91 209c-1.06.1-2.54.93-1.71 2.18a1.89 1.89 0 0 0 2.1.86 1.77 1.77 0 0 0 1-2 .82.82 0 0 0-.08-.29.75.75 0 0 0-.09-.3 1.27 1.27 0 0 0-1.22-.45z"/></g><g class="E"><path d="M80.39,177.58c-9.13,4.75-4.56,17.87-23.14,26.63,18,10.22,15.27,21.95,22.79,27.95l6.11-6.93s-8.4-9.81-8.4-20.36,8.4-21.05,8.4-21.05Z"/><g class="F"><path d="M80 232.16s-9.92 9.05-21.29 3.8-17-10-27-4.88c0 0 2.36-8.54 15.87-8.75s19.13-3.18 21.19-8.59m-15.27 8.09c-10.88-1-18.5-16.62-35.65-15.12A24.91 24.91 0 0 0 .5 216.58s.59-14 15.13-17.75c15.1-3.93 29.49 1.11 38.11-11.77m15.43 7.83s-4.29-5.93-10.79-7.43-19.76-.38-26.63-9.13A25.13 25.13 0 0 0 49.12 177c4.5-2.13 12-5.25 18.26-5.25s13 5.87 13 5.87"/><path d="M23.62 197.43c-5.88-1.9-8.4-10.85-11.09-14.13-2.15-2.63-5.53-2-7.28-1.72a8.54 8.54 0 0 1 8.75-5.5c5 .38 7.88 6 13.38 8.52s10.09-1.6 10.09-1.6M31 209.46s2.7 8.36-4.42 13.25-15.2 6.12-12.7 20.49c1.12-3.49 3.13-6.7 10-6.36s9.49 5.87 16.36 5"/><path d="M23.55 182.18c-.8-3.47-4.8-17.35-13.8-19.72 9.75-2.75 14.87-12.75 27.25-13.88m20.07 108.31s-3.07 2.94-12.45-1.68-13.1-4.27-13.1-4.27c10.6-5.61 9.62-17.51 18.67-19.14M131 216.47s-17.54-3.26-31.54-10.7l-12.35-1s-6.92 3.72-7.71 7.77M78 234.08s13.33-3.14 20.06-6.69c7.29-3.84 11.89-7.77 15.54-15.6m-27.45 13.44s10.42-14.06 17.85-16.86m-11.08-3s-.67 7.09 1.66 9.67"/><path d="M83.33 219.46s7.75-7.24 10.09-7.24m-12.67 3.25s6.16-5.35 12.08-6.43m44.55 13.89c-6.73-2.41-8.38-17.56-16.38-18.34l14.33.15c.34 10 6.09 13.47 6.09 13.47m30-5.34c-9.17 1.75-20.09-7.33-30.59-8"/><path d="M137.71 222.93c2.38-5.48 11.41-8.6 13.74-14.54m-7.2-2.52a8 8 0 0 0 2.59 7.89m-18.59-3.46l7.13-2.11m-4.73 7s4.39-.81 5.81-3.18m-2.52 7.99s4.66-2.66 5-4.21M108 230.54a59.73 59.73 0 0 1 13.69-16.31m5.12 1.32s-5.56 5.49-6.5 11.24"/></g></g><path d="M140.91 200.23c-1.06-.1-2.54-.93-1.71-2.18a1.89 1.89 0 0 1 2.1-.86 1.77 1.77 0 0 1 1 2 .82.82 0 0 1-.08.29.75.75 0 0 1-.09.3 1.27 1.27 0 0 1-1.22.45z" class="D"/><g class="E F"><path d="M131 192.72s-17.5 3.28-31.5 10.69l-12.35 1s-6.92-3.72-7.71-7.77M78 175.1s13.33 3.14 20.06 6.69c7.29 3.84 11.89 7.77 15.54 15.61"/><path d="M86.15 184s10.42 14 17.85 16.81m-11.08 3s-.67-7.08 1.66-9.67"/><path d="M83.33 189.73S91.08 197 93.42 197m-12.67-3.29s6.16 5.35 12.08 6.43m44.55-13.89c-6.73 2.41-8.38 17.56-16.38 18.34l14.33-.15c.34-10 6.09-13.46 6.09-13.46m30 5.33c-9.17-1.75-20.09 8-30.59 8.6"/><path d="M137.71 186.25c2.38 5.48 11.41 8.6 13.74 14.54m-7.2 2.52a8 8 0 0 1 2.59-7.89m-18.59 3.46l7.13 2.11m-4.73-6.99s4.39.81 5.81 3.18m-2.52-7.97s4.66 2.65 5 4.2M108 178.64A59.73 59.73 0 0 0 121.69 195m5.12-1.37s-5.56-5.49-6.5-11.24M63.55 190s-3.3 11.25-12.55 12.46-13-4.67-30-2.17S.75 215.47.75 215.47s5.3-12.24 19.17-12.75c17.37-.64 25.3 13.57 37.08 13.28 5-.14 7.25-2.08 9.17-5.35M62 188.57s10.14-5.57 9.38-16.17m-15.17 14.66s9.67-7.56 5.29-14.66m-12.38 13.51s10.38-7.72 5.63-11.17m-11.44 9.93s6.35-4 2.08-6.32m-39.67 3.16a5.9 5.9 0 0 1 4-1.28c6.87-.08 10.13 10.51 21.13 12.66 7.88 1.55 16.62-3.06 19.31-6.15m-9.04-2.07A10.34 10.34 0 0 1 29.38 189c-7.95-2.18-13.26-10.58-18.26-10.58s-5.4 2.7-5.4 2.7M13.88 242s-.84-5.81 4-9.13 17.17-5 19.26-20.18m-23.02 28.92s.69-4.79 4.26-6.25c10.05-4.13 21.5 3.83 27.12-5.13m-12.62-.29s6.09-4.45 12.84-2.87 22.78 7.56 30.53.91m-3.5-7.87c-1.66 1.67-8.38 5.82-18.5 5.06s-17.41-.79-21.87 5m-21.91-67.93c7.93-.17 17.94-10.54 30.41-6.55"/><path d="M10.47 162.24c7.49-.73 19.79 6.48 27.86 4.44m1.92 12.26C31.1 179 25 164.82 9.75 162.46m22.63 88.36c14.84-3.2 14.62-16.38 22.18-16.88m8.89 15.34c-9.66 6.74-20.62-.23-31.57 1.73"/><path d="M63.25,238.32c-4.63,7.62-23,12.5-31.73,12.62"/></g><g class="D"><path d="M227 227a33 33 0 0 0 8.35-14.79m86.01 38.73a.84.84 0 0 0 1-.59 1.64 1.64 0 0 0-.27-1.46.85.85 0 0 0-1.58.43.68.68 0 0 0-.05.29 1.31 1.31 0 0 0 .9 1.33zm-.28 6.92a1.29 1.29 0 0 0 .79.15 1.23 1.23 0 0 0 .91-1.58 1.27 1.27 0 0 0-.12-.23 1 1 0 0 0-.21-.45 1.29 1.29 0 0 0-1.2-.33 1.1 1.1 0 0 0-.26 0 1.43 1.43 0 0 0-.85 2.12.73.73 0 0 0 .94.32zm-.46 6.05l.09.06a1.61 1.61 0 0 0 2.05-.61 1.58 1.58 0 0 0-.83-2.58 2.58 2.58 0 0 0-2.29.62 1.5 1.5 0 0 0 .98 2.51zm1.17 8.82a2.2 2.2 0 0 0 .85-2.74 3.15 3.15 0 0 0-.79-1.6 2.84 2.84 0 0 0-3.94-.11c-2.42 2.21 1.33 6.14 3.88 4.45zm-17.56 7.88a.85.85 0 0 1 0 1.16 1.59 1.59 0 0 1-1.4.5.85.85 0 0 1-.42-1.58.82.82 0 0 1 .22-.19 1.33 1.33 0 0 1 1.6.11zm5.85-3.7a1.29 1.29 0 0 1 .52.61 1.23 1.23 0 0 1-.91 1.58 1 1 0 0 1-.25 0 1 1 0 0 1-.51 0 1.3 1.3 0 0 1-.88-.87 1.2 1.2 0 0 1-.11-.23 1.43 1.43 0 0 1 1.4-1.8.73.73 0 0 1 .74.71zm5.01-3.42l.09.05a1.61 1.61 0 0 1 .5 2.08 1.58 1.58 0 0 1-2.65.57 2.61 2.61 0 0 1-.6-2.3 1.5 1.5 0 0 1 2.66-.4zm-86.6-59.05a3.11 3.11 0 0 0 .61.2.78.78 0 0 0 .94-.95 2 2 0 0 0-.86-1.38 1.8 1.8 0 0 0-1.25-.08h-.2a.52.52 0 0 0-.34.16.9.9 0 0 0-.32 1.45 4.09 4.09 0 0 0 .67.51.83.83 0 0 0 .75.09zm-2.98 5.56a.73.73 0 0 0 .41 0l.33.16a1 1 0 0 0 1.2-.71 2.18 2.18 0 0 0-.06-1.49 1.19 1.19 0 0 0-.74-.53h-.32l-.35-.07a1.1 1.1 0 0 0-1.18.5 1.43 1.43 0 0 0 .71 2.14zm-2.87-3.43a1.06 1.06 0 0 0 1-.79 1.36 1.36 0 0 0-.55-1.52 3.07 3.07 0 0 0-.38-.17 1.1 1.1 0 0 0-1.18 0 .58.58 0 0 0-.47.72v.17a1 1 0 0 0 0 .25 1.27 1.27 0 0 0 .13.65 1.48 1.48 0 0 0 1.45.69zm-1.97-4.1a1.17 1.17 0 0 0 .63-.33 1 1 0 0 0 .16-1.19 1 1 0 0 0-1.11-.46q.17.09 0 0h-.2a.63.63 0 0 0-.64 1 1 1 0 0 0 1.16.98zM217 214a1 1 0 0 0 .51-1.16 1.45 1.45 0 0 0-.71-.83.66.66 0 0 0-1 .4 1.53 1.53 0 0 0 0 .3.76.76 0 0 0-.12.3c0-.28-.09.1-.1.22a.71.71 0 0 0 .11.49 1 1 0 0 0 1.31.28zm-2.27-3.61a1 1 0 0 0 .39-1.39 1.87 1.87 0 0 0-.7-.64l-.19-.08h-.1a.83.83 0 0 0-1 .09c.19-.16-.09.06-.13.1a1 1 0 0 0-.28.6 1.35 1.35 0 0 0 .14.86 1.42 1.42 0 0 0 1.87.46zm8.39.82h0c-.01.05-.01.04 0 0z"/><path d="M224.34 212.41a1.63 1.63 0 0 0 .9-.67 1.14 1.14 0 0 0-.7-1.66 1.12 1.12 0 0 0-.85.14h0a1 1 0 0 0-.5.57l-.1.46c-.09.62.49 1.44 1.25 1.16zm-2.08 7.7v-.07a1.14 1.14 0 0 0-.29-1.47.76.76 0 0 0-1.37-.16 1 1 0 0 0-.11.17 1.16 1.16 0 0 0 .16 1.9h.07a1.11 1.11 0 0 0 1.54-.37zm2.44 4.13h0 0a.8.8 0 0 0 .47-.8 1.31 1.31 0 0 0 0-.39 1.06 1.06 0 0 0-.76-.76l-.35-.1c-.1 0-.42-.17-.11 0a.94.94 0 0 0-1.13 1.46c.48.46 1.25.95 1.88.59zm-7.55-4.78a1.33 1.33 0 0 0 1.47-1.25 1.42 1.42 0 0 0-.26-.77 1.26 1.26 0 0 0-.33-.36.7.7 0 0 0-.36-.19c.14.07.17.07.08 0a.88.88 0 0 0-1.17.31 1.18 1.18 0 0 0-.21.78h0a1.22 1.22 0 0 0-.09.6.88.88 0 0 0 .87.88zm2.38-3.37a1 1 0 0 0 .42-1.44c-.07-.37-.46-.71-.83-.55a2.35 2.35 0 0 0-.45.22.94.94 0 0 0-.47.81v.09a1 1 0 0 0 1.33.87zm-4.84-.02a1.08 1.08 0 0 0 .77-1.33 1.3 1.3 0 0 0-.65-.86 1.74 1.74 0 0 0-.38-.14c-.05 0-.48-.12-.28-.06a.89.89 0 0 0-1.1.86 1.24 1.24 0 0 0 .08.46.78.78 0 0 0 0 .37c.2.7.96.82 1.56.7zm-4.24-3.75c.83.22 1.32-.65 1.35-1.34 0-1.13-1.86-1.42-2-.25a2.59 2.59 0 0 0 0 .48v.12a.93.93 0 0 0 .65.99zm-2.27-4.86a.9.9 0 0 0 1.07-.62 1 1 0 0 0 .05-.37.8.8 0 0 0-1.21-.67h-.07a.64.64 0 0 0-.77 1 2.36 2.36 0 0 0 .93.66zM230.42 218a1.113 1.113 0 0 0-1.93-1.11 1.113 1.113 0 0 0 1.93 1.11zm30.82 13.47c1 .45 2.66.46 2.57-1a1.89 1.89 0 0 0-1.39-1.8 1.78 1.78 0 0 0-1.9 1.24.84.84 0 0 0-.08.29.82.82 0 0 0-.07.31c.01.49.47.78.87.96z"/></g><g class="E"><path d="M298,288.9c10.28.45,12.89-13.19,33.35-11.49-10.47-17.85-2.24-26.65-5.75-35.61l-8.76,2.95s2.37,12.7-2.9,21.83-17.81,14-17.81,14Z"/><g class="F"><path d="M325.56 241.8s13.1-2.87 20.33 7.36 9.72 17.16 20.95 17.73c0 0-6.32 6.21-18.13-.36s-18.15-6.81-22.64-3.16m17.31.63c8.91 6.31 7.7 23.65 23.31 30.93a24.92 24.92 0 0 0 20 .12s-7.49 11.79-22 7.8c-15-4.14-25-15.7-38.89-8.86m-9.47-14.47s.76 7.29 5.64 11.83 16.91 10.2 18.49 21.22a25.1 25.1 0 0 0-15.73-7.5c-5-.41-13-1.45-18.43-4.58S298 288.9 298 288.9m59.05 11.19c4.14 4.58 1.85 13.6 2.54 17.79.55 3.35 3.81 4.47 5.45 5.12a8.53 8.53 0 0 1-10.33.39c-4.14-2.82-3.8-9.17-7.33-14.06s-9.53-3.68-9.53-3.68M356.67 286s1.85-8.6 10.46-9.27 16.23 2.3 21.25-11.4c-2.73 2.47-6.07 4.24-11.85.51s-5.29-9.82-11.68-12.5m-15.36 60c-1.05 3.4-4.52 17.42 2.09 24-9.82-2.5-19.26 3.6-30.54-1.61m36.77-103.85s4.13-1 9.94 7.68S377 249.8 377 249.8c-12-.44-17.09 10.35-25.74 7.24m-77.72-27.14s13.56 11.59 22 25l10.14 7.1s7.86.24 10.57-2.88m12.03-17.96s-13.11-3.94-20.72-4.24c-8.22-.31-14.18.79-21.26 5.75m30.5 2.08s-16.05 7-23.92 5.66m8.12 8.16s4.12-5.8 3.39-9.21"/><path d="M316.35 251.16S306 253.55 304 252.38m12.6 3.52s-8 1.56-13.68-.46m-31.63-34.31c4.61 5.45-1.53 19.4 5 24.07L264 237.91c4.73-8.86 1.46-14.71 1.46-14.71m-28.68-10.38c8.81 3.07 13.73 16.39 22.5 22.19"/><path d="M271 221c-4.81 3.56-14.19 1.75-19.18 5.72m4.98 5.75a8 8 0 0 0 1.71-8.13m14.37 12.29l-7.23-1.74m7.59-3.7s-4.2-1.49-6.62-.14m6.17-5.64s-5.37 0-6.4 1.16m34.14 2.66a59.72 59.72 0 0 1-20 7.28m-3.79-3.7s7.57-2 11.25-6.49"/></g></g><path d="M256.88 239c.86.62 1.73 2.08.39 2.75a1.9 1.9 0 0 1-2.26-.31 1.77 1.77 0 0 1 .13-2.26 1.11 1.11 0 0 1 .21-.22.91.91 0 0 1 .23-.21 1.27 1.27 0 0 1 1.3.25z" class="D"/><g class="E F"><path d="M261.67 250.47s16.82 5.94 32.66 6.5l11.21 5.28s4.13 6.69 2.79 10.59m-9.54 19.4s-10-9.38-14-15.82c-4.39-7-6.41-12.68-5.65-21.29m17.02 25.37s-2-17.39-7.06-23.54m11.13 2.96s-3 6.47-6.28 7.54"/><path d="M301.49 276.91s-3.1-10.14-5.12-11.3m9.34 9.14s-2.65-7.71-7.24-11.61M253 252.9c7 1.27 16-11 23.35-7.7l-12.49-7c-5.3 8.53-12 8.62-12 8.62m-23.36-19.65c7.06 6.09 21.37 3.14 30.78 7.84"/><path d="M252.66 252.73c.67-5.94-5.58-13.15-4.64-19.46m7.5 1.42a8 8 0 0 1-6.18 5.54m17.82 6.29l-5.11-5.38m.59 8.42s-3.4-2.9-3.44-5.66m-1.8 8.16s-2.71-4.64-2.19-6.12m19.37 28.23a59.58 59.58 0 0 0-3.7-21m-5.09-1.39s2.07 7.54 0 13m52.99 21.75s8.46-8.06 17.07-4.48 8.93 10.54 24.9 16.88 25.13-3 25.13-3-10.71 8-23 1.47c-15.36-8.13-15.12-24.41-25.49-30-4.43-2.39-7.32-1.82-10.62.05m-7.39 21.13s-11.56-.25-16.21 9.31m20.47-5.11s-12.15 1.71-11.91 10.05m17.48-5.52s-12.85 1.5-10.46 6.87m14.87-2.88s-7.5.3-5 4.43m35.97 17.1a5.89 5.89 0 0 1-4.12-.91c-6-3.36-3.52-14.16-12-21.53-6.06-5.27-15.93-5.65-19.8-4.33m6.84 6.33a10.35 10.35 0 0 1 12.36 2.09c5.8 5.86 6.19 15.79 10.52 18.29s6 .36 6 .36m23.41-56.8s-2.18 5.45-8.06 5.89-17.37-4.22-26.74 7.85m34.37-13.49s-3 3.81-6.81 3.29c-10.77-1.45-16.7-14.07-26.06-9.12m10.79 6.56s-7.5.81-12.55-3.94-15.95-17.94-26-16.05m-.89 8.56c2.27-.61 10.16-.84 18.54 4.88s14.69 9.38 21.42 6.65m-14.97 69.74c-6.95-3.82-20.8.16-29.6-9.54"/><path d="M350.84 337.15C344 334 337 321.64 328.94 319.37m4.47-11.58c7.93 4.55 6.14 19.86 18.17 29.53m24.58-87.84c-14.45-4.65-20.85 6.87-27.65 3.52m-.03-17.73c11.74-1 17.75 10.52 28.21 14.29"/><path d="M343.17,244.87c7.82-4.29,26.17.67,33.8,4.93"/></g><path d="M181.21 181.18a33 33 0 0 0-8.35 14.82m-86.04-38.76a.84.84 0 0 0-1 .59 1.63 1.63 0 0 0 .27 1.46.85.85 0 0 0 1.58-.43.68.68 0 0 0 0-.29 1.31 1.31 0 0 0-.85-1.33zm.28-6.92a1.37 1.37 0 0 0-.79-.15 1.23 1.23 0 0 0-.91 1.58 1.27 1.27 0 0 0 .12.23.91.91 0 0 0 .22.45 1.26 1.26 0 0 0 1.19.33 1.1 1.1 0 0 0 .26 0 1.44 1.44 0 0 0 .86-2.12.74.74 0 0 0-.95-.32zm.46-6.05l-.09-.05a1.71 1.71 0 1 0-1.22 3.19 2.62 2.62 0 0 0 2.29-.63 1.5 1.5 0 0 0-.98-2.51zm-1.17-8.82a2.2 2.2 0 0 0-.85 2.74 3.15 3.15 0 0 0 .79 1.6 2.84 2.84 0 0 0 3.94.11c2.43-2.21-1.33-6.14-3.88-4.45zm17.61-7.88a.85.85 0 0 1 0-1.16 1.6 1.6 0 0 1 1.4-.5.85.85 0 0 1 .42 1.58.82.82 0 0 1-.22.19 1.33 1.33 0 0 1-1.6-.11zm-5.9 3.7a1.29 1.29 0 0 1-.52-.61 1.23 1.23 0 0 1 .91-1.58 2.09 2.09 0 0 1 .25 0 1 1 0 0 1 .51 0 1.28 1.28 0 0 1 .88.87 1.2 1.2 0 0 1 .11.23 1.42 1.42 0 0 1-1.4 1.8.73.73 0 0 1-.74-.71zm-5.01 3.42l-.09-.05a1.61 1.61 0 0 1-.5-2.08 1.58 1.58 0 0 1 2.65-.57 2.62 2.62 0 0 1 .6 2.3 1.5 1.5 0 0 1-2.66.4zm86.6 59.05a2.91 2.91 0 0 0-.61-.2.79.79 0 0 0-.94 1 2 2 0 0 0 .86 1.38 1.8 1.8 0 0 0 1.25.08h.2a.5.5 0 0 0 .34-.16.9.9 0 0 0 .32-1.45 4.09 4.09 0 0 0-.67-.51.83.83 0 0 0-.75-.14zm2.98-5.54a.83.83 0 0 0-.41 0c-.11 0-.2-.11-.33-.16a1 1 0 0 0-1.2.71 2.18 2.18 0 0 0 .06 1.49 1.19 1.19 0 0 0 .74.53h.32l.35.07a1.1 1.1 0 0 0 1.18-.5 1.43 1.43 0 0 0-.71-2.14zm2.87 3.42a1 1 0 0 0-1 .78 1.36 1.36 0 0 0 .55 1.52 3.07 3.07 0 0 0 .38.17 1.1 1.1 0 0 0 1.18 0 .58.58 0 0 0 .47-.72v-.17a1 1 0 0 0 0-.25 1.17 1.17 0 0 0-.13-.65 1.46 1.46 0 0 0-1.45-.68zm1.97 4.09a1.17 1.17 0 0 0-.63.33 1 1 0 0 0-.16 1.19 1 1 0 0 0 1.11.46q-.17-.09 0 0h.2a.63.63 0 0 0 .64-1 1 1 0 0 0-1.16-.98zm3.63-1.51a1 1 0 0 0-.51 1.16 1.46 1.46 0 0 0 .71.83.66.66 0 0 0 1-.4 1.53 1.53 0 0 0 0-.3.76.76 0 0 0 .12-.3c0 .28.09-.1.1-.22a.71.71 0 0 0-.11-.49 1 1 0 0 0-1.31-.28zm2.31 3.59a1 1 0 0 0-.39 1.39 1.87 1.87 0 0 0 .7.64l.19.08h.1a.83.83 0 0 0 1-.09c-.19.16.09-.06.13-.1a1.06 1.06 0 0 0 .29-.6 1.36 1.36 0 0 0-.15-.86 1.42 1.42 0 0 0-1.87-.46zm-8.39-.79h0c.01-.08.01-.07 0 0zm-1.22-1.23a1.67 1.67 0 0 0-.9.67 1.14 1.14 0 0 0 .7 1.66 1.08 1.08 0 0 0 .85-.14h0a1 1 0 0 0 .5-.57l.1-.46c.07-.62-.49-1.44-1.25-1.16zm2.08-7.7v.07a1.14 1.14 0 0 0 .29 1.47.76.76 0 0 0 1.37.16 1 1 0 0 0 .11-.17 1.15 1.15 0 0 0-.16-1.89l-.07-.05a1.11 1.11 0 0 0-1.54.41zm-2.44-4.13h0 0a.8.8 0 0 0-.47.8 1.31 1.31 0 0 0 0 .39 1.06 1.06 0 0 0 .76.76l.35.1c.1 0 .42.17.11 0a.94.94 0 0 0 1.13-1.46c-.48-.46-1.25-.95-1.88-.59zm7.52 4.78a1.33 1.33 0 0 0-1.47 1.25 1.42 1.42 0 0 0 .26.77 1.26 1.26 0 0 0 .33.36.69.69 0 0 0 .37.19c-.15-.07-.18-.07-.09 0a.88.88 0 0 0 1.17-.31 1.18 1.18 0 0 0 .21-.78h0a1.22 1.22 0 0 0 .09-.6.88.88 0 0 0-.87-.88zm-2.35 3.37a1 1 0 0 0-.42 1.44c.07.37.46.71.83.55a2.35 2.35 0 0 0 .45-.22.94.94 0 0 0 .47-.81V193a1 1 0 0 0-1.33-.91zm4.84.02a1.09 1.09 0 0 0-.77 1.33 1.31 1.31 0 0 0 .66.86 1.49 1.49 0 0 0 .37.14c.05 0 .48.12.28.06a.89.89 0 0 0 1.1-.86 1.24 1.24 0 0 0-.08-.46.78.78 0 0 0 0-.37c-.2-.7-.96-.81-1.56-.7zm4.24 3.75c-.83-.22-1.32.65-1.35 1.34 0 1.13 1.86 1.42 2 .26a2.77 2.77 0 0 0 0-.49v-.12a.93.93 0 0 0-.65-.99zm2.27 4.86a.9.9 0 0 0-1.07.63.87.87 0 0 0-.05.36.8.8 0 0 0 1.21.67h.07a.64.64 0 0 0 .77-1 2.36 2.36 0 0 0-.93-.66zm-22.24-10.53a1.113 1.113 0 0 0 1.93 1.11 1.113 1.113 0 0 0-1.93-1.11zm-30.82-13.48c-1-.45-2.66-.46-2.57 1a1.89 1.89 0 0 0 1.39 1.79 1.78 1.78 0 0 0 1.9-1.24.84.84 0 0 0 .08-.29.82.82 0 0 0 .07-.31c-.01-.44-.47-.77-.87-.95z" class="D"/><g class="E"><path d="M110.22,119.28c-10.28-.45-12.89,13.19-33.35,11.49,10.47,17.85,2.24,26.65,5.75,35.61l8.76-2.95s-2.37-12.7,2.9-21.83,17.81-14,17.81-14Z"/><g class="F"><path d="M82.62 166.38s-13.1 2.87-20.33-7.36-9.72-17.16-20.95-17.73c0 0 6.32-6.21 18.13.36s18.15 6.81 22.64 3.16m-17.3-.65c-8.92-6.31-7.71-23.65-23.32-30.93a24.92 24.92 0 0 0-20-.12s7.49-11.79 22-7.8c15 4.14 25 15.7 38.89 8.86m9.47 14.49s-.76-7.28-5.64-11.83-16.91-10.2-18.49-21.22a25.13 25.13 0 0 0 15.73 7.5c5 .41 13 1.45 18.43 4.58s8.34 11.59 8.34 11.59m-59.09-11.19c-4.14-4.58-1.85-13.6-2.54-17.79-.55-3.35-3.8-4.47-5.45-5.12a8.55 8.55 0 0 1 10.33-.39c4.14 2.82 3.8 9.17 7.33 14.06s9.53 3.68 9.53 3.68"/><path d="M51.51 122.19s-1.85 8.6-10.46 9.27-16.23-2.3-21.25 11.4c2.73-2.47 6.07-4.24 11.85-.51s5.29 9.82 11.68 12.5m15.36-60.01c1.05-3.4 4.52-17.42-2.09-24 9.82 2.5 19.26-3.6 30.54 1.61M50.37 176.3s-4.13 1-9.94-7.68-9.21-10.24-9.21-10.24c12 .44 17.08-10.35 25.73-7.24m77.69 27.14s-13.56-11.59-22-25l-10.17-7.07s-7.86-.24-10.57 2.88M79.9 167s13.1 4 20.72 4.26c8.22.31 14.18-.79 21.26-5.75m-30.5-2.08s16.05-7 23.92-5.66m-8.13-8.16s-4.12 5.8-3.39 9.21"/><path d="M91.83 157s10.33-2.39 12.35-1.22m-12.6-3.5s8-1.56 13.68.46m31.63 34.31c-4.61-5.45 1.53-19.4-5-24.07l12.34 7.29c-4.73 8.86-1.46 14.71-1.46 14.71m28.63 10.38c-8.81-3.07-13.73-16.39-22.5-22.19"/><path d="M137.18 187.22c4.81-3.56 14.19-1.75 19.18-5.72m-4.98-5.78a8 8 0 0 0-1.71 8.12m-14.37-12.29l7.23 1.74m-7.59 3.71s4.2 1.49 6.62.14m-6.17 5.63s5.37 0 6.4-1.16M107.65 179a59.72 59.72 0 0 1 20-7.28m3.79 3.65s-7.57 2-11.25 6.49"/></g></g><path d="M151.3 169.16c-.86-.62-1.73-2.08-.39-2.75a1.9 1.9 0 0 1 2.26.31A1.77 1.77 0 0 1 153 169a1.11 1.11 0 0 1-.21.22.77.77 0 0 1-.23.21 1.27 1.27 0 0 1-1.26-.27z" class="D"/><g class="E F"><path d="M146.51 157.71s-16.82-5.94-32.66-6.5l-11.21-5.28s-4.13-6.68-2.79-10.59m9.54-19.4s10 9.38 14 15.82c4.39 7 6.41 12.68 5.65 21.29"/><path d="M112 127.68s2 17.39 7 23.54m-11-2.96s3-6.47 6.28-7.54"/><path d="M106.69 131.27s3.1 10.14 5.12 11.3m-9.34-9.14s2.65 7.71 7.24 11.61m45.52 10.24c-7-1.27-16 11-23.35 7.7l12.49 7c5.31-8.53 12-8.62 12-8.62M179.68 181c-7.06-6.09-21.37-3.14-30.78-7.84"/><path d="M155.52 155.45c-.67 5.94 5.58 13.16 4.64 19.46m-7.5-1.42a8 8 0 0 1 6.19-5.53m-17.85-6.3l5.11 5.38m-.57-8.42s3.4 2.9 3.44 5.66m1.8-8.16s2.71 4.64 2.19 6.12M133.6 134a59.58 59.58 0 0 0 3.7 21m5.09 1.4s-2.07-7.54 0-13M89.4 121.65s-8.46 8.06-17.07 4.48-8.93-10.54-24.9-16.88-25.13 3-25.13 3 10.71-8 23-1.47c15.36 8.13 15.12 24.41 25.49 30 4.43 2.39 7.32 1.82 10.62 0m7.39-21.17s11.56.24 16.21-9.32m-20.47 5.11s12.15-1.71 11.91-10.05M79 110.87s12.84-1.5 10.45-6.87m-14.89 2.88s7.5-.3 5-4.43m-35.97-17.1a5.89 5.89 0 0 1 4.12.91c6 3.36 3.52 14.16 12 21.53 6.06 5.27 15.93 5.65 19.8 4.33m-6.84-6.33a10.35 10.35 0 0 1-12.36-2.09c-5.8-5.86-6.19-15.79-10.52-18.29s-6-.36-6-.36m-23.4 56.8s2.18-5.45 8.05-5.89 17.37 4.26 26.77-7.85m-34.4 13.49s3-3.81 6.81-3.29c10.77 1.45 16.7 14.07 26.06 9.12m-10.79-6.56s7.5-.81 12.55 3.94 16 17.94 26 16.05m.89-8.56c-2.27.61-10.16.84-18.54-4.88S49.1 138 42.37 140.77M57.34 71c7 3.82 20.8-.15 29.6 9.54"/><path d="M57.34 71c6.85 3.12 13.89 15.52 21.9 17.78m-4.47 11.61c-7.93-4.55-6.14-19.85-18.17-29.53M32 158.7c14.45 4.65 20.85-6.87 27.65-3.52m.05 17.73c-11.7 1-17.7-10.52-28.21-14.29"/><path d="M65,163.31c-7.82,4.29-26.17-.67-33.79-4.93"/></g><g class="D"><path d="M212.45 235.37a33.29 33.29 0 0 0 7.61-3.2 32.6 32.6 0 0 0 7-5.44m55.16 76.57a.85.85 0 0 0 1.16 0 1.62 1.62 0 0 0 .5-1.4.85.85 0 0 0-1.58-.42.73.73 0 0 0-.19.23 1.31 1.31 0 0 0 .11 1.59zm-3.7 5.85a1.31 1.31 0 0 0 .61.53 1.23 1.23 0 0 0 1.58-.91 2.35 2.35 0 0 0 0-.26 1 1 0 0 0 0-.51 1.3 1.3 0 0 0-.87-.88 1.2 1.2 0 0 0-.23-.11 1.44 1.44 0 0 0-1.81 1.41.73.73 0 0 0 .72.73zm-3.42 5.01v.09a1.62 1.62 0 0 0 2.08.51 1.59 1.59 0 0 0 .57-2.66 2.62 2.62 0 0 0-2.3-.6 1.5 1.5 0 0 0-.35 2.66zm-3.4 8.22a2.2 2.2 0 0 0 2.11-1.94 3.21 3.21 0 0 0 .12-1.79 2.83 2.83 0 0 0-3.36-2c-3.21.64-1.92 5.92 1.13 5.73zm-19.15-1.95a.84.84 0 0 1-.59 1 1.63 1.63 0 0 1-1.46-.27.85.85 0 0 1 .43-1.58.84.84 0 0 1 .29-.05 1.31 1.31 0 0 1 1.33.9zm6.92-.28a1.37 1.37 0 0 1 .15.79 1.22 1.22 0 0 1-1.58.91 1.27 1.27 0 0 1-.23-.12.9.9 0 0 1-.45-.21 1.28 1.28 0 0 1-.33-1.2 1.13 1.13 0 0 1 0-.26 1.44 1.44 0 0 1 2.13-.85.73.73 0 0 1 .31.94zm6.05-.45a.22.22 0 0 1 .05.08 1.71 1.71 0 1 1-3.19 1.22 2.62 2.62 0 0 1 .63-2.29 1.51 1.51 0 0 1 2.51.99zM220 225.25a3.28 3.28 0 0 0 .43.48.78.78 0 0 0 1.29-.35 2 2 0 0 0 0-1.62 1.74 1.74 0 0 0-1-.7l-.18-.11a.47.47 0 0 0-.37 0 .9.9 0 0 0-1 1.1 4.45 4.45 0 0 0 .33.78.81.81 0 0 0 .5.42zm-5.3 3.31a.67.67 0 0 0 .33.23l.21.3a1 1 0 0 0 1.4 0 2.16 2.16 0 0 0 .69-1.32 1.15 1.15 0 0 0-.38-.83l-.25-.19-.27-.23a1.11 1.11 0 0 0-1.28-.17 1.43 1.43 0 0 0-.45 2.21zm-.78-4.39a1.06 1.06 0 0 0 1.26-.17 1.36 1.36 0 0 0 .29-1.6 2.05 2.05 0 0 0-.25-.33 1.18 1.18 0 0 0-.47-.47 1.14 1.14 0 0 0-.55-.12.57.57 0 0 0-.76.39l-.07.15a.84.84 0 0 0-.12.23 1.25 1.25 0 0 0-.22.62 1.51 1.51 0 0 0 .89 1.3zm.34-4.54a1.08 1.08 0 0 0 .71 0 1 1 0 0 0 .73-.94 1 1 0 0 0-.73-1c.07.11.06.11 0 0l-.16-.13a.62.62 0 0 0-1 .53 1 1 0 0 0 .45 1.54zm-3.9-.5a1 1 0 0 0 1-.75 1.44 1.44 0 0 0-.2-1.07.65.65 0 0 0-1-.14 1 1 0 0 0-.17.25.59.59 0 0 0-.26.2c.15-.23-.13 0-.19.14a.7.7 0 0 0-.16.48 1 1 0 0 0 .98.89zm-.2-4.26a1 1 0 0 0 1-1 1.76 1.76 0 0 0-.27-.9l-.13-.17-.07-.08a.85.85 0 0 0-.91-.41c.24-.05-.1 0-.16 0a1 1 0 0 0-.54.37 1.31 1.31 0 0 0-.31.83 1.42 1.42 0 0 0 1.39 1.36zm6.84 4.9h0z"/><path d="M217.47 221.42a1.65 1.65 0 0 0 1.11-.13 1.14 1.14 0 0 0 .23-1.79 1.11 1.11 0 0 0-.81-.3h0a1.07 1.07 0 0 0-.71.24l-.32.35c-.38.51-.3 1.5.5 1.63zm-5.65 5.63h.06a1.14 1.14 0 0 0 .49-1.42.77.77 0 0 0-1.11-.83l-.18.09a1.17 1.17 0 0 0-.81 1.73v.07a1.12 1.12 0 0 0 1.55.36zm.05 4.79h0a.8.8 0 0 0 .81-.45 1.35 1.35 0 0 0 .18-.36 1.09 1.09 0 0 0-.29-1l-.25-.26c-.07-.07-.28-.36-.08-.08a.93.93 0 0 0-1.7.7c.18.61.6 1.45 1.33 1.45zm-4.16-7.91a1.34 1.34 0 0 0 1.91-.35 1.44 1.44 0 0 0 .15-.79 1.58 1.58 0 0 0-.1-.48.87.87 0 0 0-.22-.35q.13.21.06.06a.87.87 0 0 0-1.16-.31 1.15 1.15 0 0 0-.58.57h0a1.26 1.26 0 0 0-.38.47.88.88 0 0 0 .32 1.18zm3.75-1.72a1 1 0 0 0 1.09-1.05.67.67 0 0 0-.45-.89 2.8 2.8 0 0 0-.5 0 .93.93 0 0 0-.81.47v.08a1 1 0 0 0 .67 1.39zm-4.18-2.44a1.1 1.1 0 0 0 1.34-.77 1.4 1.4 0 0 0-.14-1.08 1.81 1.81 0 0 0-.25-.3s-.36-.35-.22-.19a.88.88 0 0 0-1.38.19 1 1 0 0 0-.16.44.82.82 0 0 0-.18.33c-.19.7.41 1.18.99 1.38zm-1.8-5.37c.61.6 1.47.1 1.84-.49.61-1-.9-2.15-1.61-1.22a2.86 2.86 0 0 0-.28.4 1.17 1.17 0 0 0-.05.11.93.93 0 0 0 .1 1.2zm.52-5.34a.91.91 0 0 0 1.24 0 1.23 1.23 0 0 0 .22-.29.8.8 0 0 0-.71-1.19v-.06a.63.63 0 0 0-1.16.47 2.32 2.32 0 0 0 .41 1.07zm13.94 20.24a1.12 1.12 0 0 0-1.11-1.94 1.12 1.12 0 0 0 1.11 1.94zm19.95 27.08c.61.86 2.08 1.73 2.75.39a1.92 1.92 0 0 0-.31-2.26 1.79 1.79 0 0 0-2.27.13.84.84 0 0 0-.21.21.76.76 0 0 0-.21.23 1.27 1.27 0 0 0 .25 1.3z"/></g><g class="E"><path d="M243,324.47c8.68,5.53,17.76-5,34.63,6.73-.15-20.7,11.38-24.21,12.82-33.71l-9.06-1.83s-4.3,12.18-13.43,17.45-22.44,3.25-22.44,3.25Z"/><g class="F"><path d="M290.43 297.49s12.79 4.06 13.93 16.54-.16 19.72 9.27 25.82c0 0-8.57 2.22-15.51-9.38s-12.32-15-18-14.05m14.63 9.22c4.57 9.91-5.15 24.33 4.73 38.44a24.9 24.9 0 0 0 17.22 10.08s-12.38 6.47-22.93-4.23c-11-11.11-13.79-26.09-29.25-27.12m-.94-17.28s-3 6.69-1 13.07 9.55 17.29 5.41 27.62a25.09 25.09 0 0 0-9.88-14.36c-4.09-2.83-10.54-7.77-13.67-13.18S243 324.47 243 324.47"/><path d="M288.56 363.71c1.29 6-5.2 12.7-6.7 16.67-1.2 3.18 1.06 5.78 2.16 7.17a8.55 8.55 0 0 1-9.14-4.83c-2.18-4.52 1.29-9.84.69-15.84s-6.42-7.95-6.42-7.95m26.13-7.62s5.9-6.52 13.69-2.8 12.9 10.11 24.1.75c-3.59.78-7.37.64-10.51-5.49s.33-11.14-3.87-16.66m-43.3 44.29c-2.61 2.43-12.63 12.83-10.19 21.81-7.25-7.07-18.48-6.51-25.64-16.66M323.32 305s4.09 1.19 4.77 11.62 2.91 13.49 2.91 13.49c-10.16-6.37-20 .43-25.91-6.59m-53.76-62.35s5.95 16.82 6.51 32.66l5.28 11.17s6.68 4.13 10.59 2.79m19.4-9.5s-9.38-10-15.83-14c-7-4.39-12.67-6.41-21.28-5.65m25.37 17.02s-17.39-2-23.54-7.06m2.96 11.13s6.46-3 7.53-6.28"/><path d="M277.77 301s-10.13-3.1-11.3-5.12m9.15 9.33s-7.71-2.65-11.62-7.21m-10.23-45.55c1.27 7-11 16-7.7 23.35l-7-12.49c8.52-5.3 8.62-12 8.62-12M228 228c6.1 7.06 3.7 21.05 8.4 30.46"/><path d="M253.6 252.16c-5.94.67-13.16-5.58-19.47-4.64m1.42 7.48a8 8 0 0 0 5.54-6.18m6.3 17.84l-5.39-5.11m8.42.59s-2.89-3.4-5.66-3.44m8.16-1.8s-4.63-2.71-6.12-2.19m28.2 19.37a59.58 59.58 0 0 1-21-3.7m-1.35-5.09s7.54 2.07 13 0"/></g></g><path d="M232.34 260.74c.44 1 .46 2.66-1 2.57a1.91 1.91 0 0 1-1.8-1.39 1.79 1.79 0 0 1 1.25-1.9.84.84 0 0 1 .29-.08.82.82 0 0 1 .31-.07c.44.01.76.47.95.87z" class="D"/><g class="E F"><path d="M230.76 273s11.6 13.56 25 22l7.06 10.17s.25 7.86-2.87 10.57M242 327.78s-3.95-13.11-4.24-20.72c-.32-8.22.79-14.18 5.75-21.26m2.11 30.5s7-16.05 5.65-23.92m8.16 8.13s-5.8 4.12-9.2 3.39"/><path d="M252 315.85s2.39-10.33 1.22-12.35m3.55 12.6s1.55-8-.47-13.68M222 270.79c5.44 4.61 19.39-1.53 24.07 5l-7.3-12.34c-8.85 4.73-14.7 1.46-14.7 1.46m-10.38-28.63c3.07 8.81 16.93 13.41 22.74 22.18"/><path d="M221.83 270.5c3.55-4.81 1.74-14.19 5.72-19.18m5.78 4.98a8 8 0 0 1-8.12 1.71m12.29 14.37l-1.74-7.23m-3.7 7.59s-1.49-4.2-.14-6.62m-5.64 6.17s0-5.37 1.16-6.4M230.1 300a60 60 0 0 0 7.28-20m-3.7-3.76s-2 7.57-6.49 11.25m35 45.34s11.36-2.75 17 4.66 2.46 13.59 13.12 27.06 23.28 9.95 23.28 9.95-13.23 1.5-20.59-10.22c-9.24-14.73-.9-28.7-7.08-38.74-2.64-4.29-5.43-5.23-9.22-5.26m-17 14.62s-9.89-6-18.7 0m20.28 5.77s-11.38-4.59-15.34 2.75m17.89 3.96s-11.87-5.12-12.49.72m14.33 4.9s-6.65-3.49-6.52 1.36m22.57 32.81a5.89 5.89 0 0 1-3.12-2.85c-3.51-5.91 4-14 .4-24.62-2.6-7.6-11-12.86-15-13.65m2.76 8.88a10.35 10.35 0 0 1 9.65 8c2.09 8-2.53 16.77 0 21.1s5 3.32 5 3.32m48.65-37.5s-4.61 3.62-9.92 1.07-12.91-12.38-27.11-6.59m36.54 5.51s-4.5 1.81-7.55-.55c-8.6-6.64-7.42-20.54-18-20.92m6.07 11.07s-6.9-3.05-8.91-9.69-4.84-23.51-14.48-26.89m-5.06 6.96c2.27.61 9.22 4.35 13.62 13.5s8 15.47 15.23 16.47m-47.84 52.91c-4.11-6.79-18.09-10.27-20.86-23.06"/><path d="M264.65 392.7c-4.37-6.12-4.28-20.38-10.07-26.35m9.65-7.8c4.6 7.91-4.6 20.27 1 34.66m65.19-63.77c-10.2-11.26-21.5-4.48-25.71-10.78m8.84-15.37c10.66 5 10.11 18 17.28 26.48"/><path d="M304.15,308.94c8.92.2,22.33,13.68,26.8,21.17"/></g><g class="D"><path d="M195.73 172.81a33.29 33.29 0 0 0-7.61 3.2 32.3 32.3 0 0 0-7 5.44M126 104.88a.85.85 0 0 0-1.16 0 1.62 1.62 0 0 0-.5 1.4.85.85 0 0 0 1.58.42.73.73 0 0 0 .19-.23 1.31 1.31 0 0 0-.11-1.59zm3.66-5.88a1.29 1.29 0 0 0-.61-.52 1.23 1.23 0 0 0-1.58.91 2.09 2.09 0 0 0 0 .25 1 1 0 0 0 0 .51 1.3 1.3 0 0 0 .88.88.82.82 0 0 0 .23.11 1.44 1.44 0 0 0 1.8-1.41.73.73 0 0 0-.72-.73zm3.42-5l-.05-.09a1.61 1.61 0 0 0-2.08-.5 1.58 1.58 0 0 0-.57 2.65 2.62 2.62 0 0 0 2.3.6 1.5 1.5 0 0 0 .4-2.66zm3.4-8.2a2.2 2.2 0 0 0-2.11 1.94 3.21 3.21 0 0 0-.12 1.79 2.85 2.85 0 0 0 3.36 2.06c3.21-.7 1.92-5.98-1.13-5.79zm19.15 1.95a.84.84 0 0 1 .59-1 1.63 1.63 0 0 1 1.46.27.85.85 0 0 1-.43 1.58.84.84 0 0 1-.29.05 1.31 1.31 0 0 1-1.33-.9zm-6.92.25a1.37 1.37 0 0 1-.15-.79 1.23 1.23 0 0 1 1.58-.91 1.27 1.27 0 0 1 .23.12 1 1 0 0 1 .45.21 1.28 1.28 0 0 1 .33 1.2 1.13 1.13 0 0 1 0 .26A1.43 1.43 0 0 1 149 89a.72.72 0 0 1-.29-1zm-6.05.49a.41.41 0 0 1 0-.09 1.71 1.71 0 1 1 3.19-1.22 2.62 2.62 0 0 1-.63 2.29 1.51 1.51 0 0 1-2.56-.98zm45.48 94.44a3.89 3.89 0 0 0-.43-.48.78.78 0 0 0-1.29.35 2 2 0 0 0 .05 1.62 1.74 1.74 0 0 0 1.05.7l.17.11a.47.47 0 0 0 .37 0 .9.9 0 0 0 1-1.1 4.36 4.36 0 0 0-.33-.77.8.8 0 0 0-.59-.43zm5.34-3.31a.67.67 0 0 0-.33-.23l-.21-.3a1 1 0 0 0-1.4 0 2.16 2.16 0 0 0-.69 1.32 1.15 1.15 0 0 0 .38.83l.25.19.27.23a1.11 1.11 0 0 0 1.28.17 1.43 1.43 0 0 0 .45-2.21zm.78 4.38a1.06 1.06 0 0 0-1.26.17 1.36 1.36 0 0 0-.29 1.6 3.29 3.29 0 0 0 .25.34 1.22 1.22 0 0 0 .47.46 1.16 1.16 0 0 0 .55.12.58.58 0 0 0 .77-.39.94.94 0 0 1 .06-.15.94.94 0 0 0 .12-.22 1.32 1.32 0 0 0 .22-.63 1.51 1.51 0 0 0-.89-1.3zm-.34 4.55a1.08 1.08 0 0 0-.71 0 1 1 0 0 0-.73.94 1 1 0 0 0 .73 1c-.07-.11-.05-.11 0 0l.16.13a.62.62 0 0 0 1-.53 1 1 0 0 0-.45-1.54zm3.9.5a1 1 0 0 0-1 .75 1.44 1.44 0 0 0 .2 1.07.66.66 0 0 0 1 .14 1.32 1.32 0 0 0 .16-.25.59.59 0 0 0 .26-.2c-.15.24.13 0 .2-.13a.79.79 0 0 0 .15-.49 1 1 0 0 0-.97-.89zm.18 4.26a1 1 0 0 0-1 1 1.74 1.74 0 0 0 .28.91l.12.16.07.08a.83.83 0 0 0 .91.41c-.24.05.1 0 .16 0a1 1 0 0 0 .55-.37 1.36 1.36 0 0 0 .3-.83 1.42 1.42 0 0 0-1.39-1.36zm-6.83-4.9h0z"/><path d="M190.71 186.76a1.65 1.65 0 0 0-1.11.13 1.15 1.15 0 0 0-.23 1.79 1.11 1.11 0 0 0 .81.3h0a1.06 1.06 0 0 0 .72-.24l.31-.35a1 1 0 0 0-.5-1.63zm5.65-5.63h-.06a1.14 1.14 0 0 0-.49 1.42.77.77 0 0 0 1.11.83l.18-.09a1.17 1.17 0 0 0 .81-1.73v-.07a1.12 1.12 0 0 0-1.55-.36zm-.05-4.79h0a.8.8 0 0 0-.81.45 1.09 1.09 0 0 0-.17.36 1.06 1.06 0 0 0 .28 1l.25.26c.07.07.28.36.08.08a.93.93 0 0 0 1.7-.7c-.18-.64-.64-1.45-1.33-1.45zm4.16 7.91a1.34 1.34 0 0 0-1.91.35 1.44 1.44 0 0 0-.15.79 1.58 1.58 0 0 0 .1.48.87.87 0 0 0 .22.35q-.14-.21-.06-.06a.87.87 0 0 0 1.16.31 1.15 1.15 0 0 0 .58-.57h0a1.26 1.26 0 0 0 .38-.47.88.88 0 0 0-.32-1.18zm-3.75 1.75a1 1 0 0 0-1.09 1.05.67.67 0 0 0 .45.89 2.1 2.1 0 0 0 .5 0 .93.93 0 0 0 .81-.47v-.08a1 1 0 0 0-.67-1.39zm4.18 2.41a1.1 1.1 0 0 0-1.34.77 1.4 1.4 0 0 0 .14 1.08 1.48 1.48 0 0 0 .26.3l.21.2a.89.89 0 0 0 1.38-.2 1.12 1.12 0 0 0 .17-.44.94.94 0 0 0 .17-.33c.19-.7-.41-1.18-.99-1.38zm1.8 5.37c-.61-.6-1.47-.1-1.84.49-.61 1 .9 2.15 1.61 1.22a2.86 2.86 0 0 0 .28-.4s0-.07.05-.1a.94.94 0 0 0-.1-1.21zm-.47 5.34a.91.91 0 0 0-1.24 0 1.11 1.11 0 0 0-.22.3.79.79 0 0 0 .71 1.18l.05.06a.63.63 0 0 0 1.16-.47 2.32 2.32 0 0 0-.46-1.07zm-13.99-20.23a1.113 1.113 0 0 0 1.11 1.93 1.113 1.113 0 0 0-1.11-1.93zm-19.95-27.08c-.61-.87-2.07-1.74-2.75-.4a1.92 1.92 0 0 0 .31 2.26 1.79 1.79 0 0 0 2.27-.13.84.84 0 0 0 .21-.21.8.8 0 0 0 .22-.23 1.28 1.28 0 0 0-.26-1.29z"/></g><g class="E"><path d="M165.2,83.71c-8.68-5.53-17.76,5-34.63-6.73.15,20.7-11.38,24.21-12.82,33.71l9.06,1.84s4.3-12.19,13.43-17.46,22.44-3.25,22.44-3.25Z"/><g class="F"><path d="M117.75 110.69s-12.75-4.06-13.93-16.54.16-19.72-9.27-25.82c0 0 8.57-2.22 15.51 9.38s12.32 15 18 14.05m-14.63-9.21c-4.57-9.92 5.15-24.34-4.73-38.44A24.88 24.88 0 0 0 91.48 34s12.38-6.47 22.93 4.23c11 11.11 13.79 26.09 29.25 27.12"/><path d="M144.6 82.65s3-6.69 1-13.07-9.51-17.29-5.37-27.58a25.09 25.09 0 0 0 9.88 14.36c4.09 2.83 10.54 7.77 13.67 13.18s1.42 14.21 1.42 14.21m-45.58-39.28c-1.29-6 5.2-12.7 6.7-16.67 1.2-3.18-1.06-5.78-2.16-7.17a8.56 8.56 0 0 1 9.14 4.83c2.18 4.52-1.29 9.84-.69 15.85s6.39 7.94 6.39 7.94"/><path d="M112.9 56.87s-5.9 6.52-13.69 2.8-12.9-10.11-24.1-.75c3.59-.78 7.37-.64 10.51 5.49s-.33 11.14 3.87 16.66m43.3-44.29C135.4 34.35 145.42 24 143 15c7.25 7.07 18.48 6.51 25.64 16.66m-83.78 71.51s-4.09-1.17-4.77-11.62-2.86-13.48-2.86-13.48c10.16 6.37 20-.43 25.91 6.59M156.85 147s-5.95-16.82-6.51-32.66l-5.28-11.21s-6.68-4.13-10.59-2.79m-19.4 9.55s9.38 10 15.83 14c7 4.39 12.67 6.41 21.28 5.65"/><path d="M126.81 112.53s17.39 2 23.54 7m-2.96-11.08s-6.46 3-7.53 6.28"/><path d="M130.41 107.19s10.13 3.1 11.3 5.12m-9.15-9.31s7.72 2.65 11.61 7.24m10.24 45.49c-1.27-7 11-16 7.7-23.35l7 12.49c-8.52 5.31-8.62 12-8.62 12m19.66 23.31c-6.1-7.06-3.7-21.05-8.4-30.46"/><path d="M154.58 156c5.94-.67 13.16 5.59 19.47 4.64m-1.42-7.48a8 8 0 0 0-5.54 6.19m-6.3-17.83l5.39 5.11m-8.42-.63s2.89 3.4 5.66 3.44m-8.16 1.84s4.63 2.71 6.12 2.19m-28.24-19.37a59.58 59.58 0 0 1 21 3.7m1.39 5.09s-7.54-2.07-13 0"/></g></g><path d="M175.84 147.44c-.44-1-.46-2.66 1-2.57a1.91 1.91 0 0 1 1.8 1.39 1.78 1.78 0 0 1-1.25 1.9 6.57 6.57 0 0 1-.6.15c-.44-.01-.79-.47-.95-.87z" class="D"/><g class="E F"><path d="M177.42 135.14s-11.6-13.56-25-22l-7.1-10.14s-.24-7.86 2.87-10.57m17.96-12.03s3.95 13.11 4.24 20.72c.32 8.22-.79 14.18-5.75 21.26"/><path d="M162.57 91.88s-7 16.06-5.66 23.92m-8.16-8.13s5.8-4.12 9.2-3.39"/><path d="M156.15 92.33s-2.38 10.33-1.22 12.35m-3.52-12.6s-1.55 8 .47 13.68m34.3 31.63c-5.44-4.61-19.39 1.53-24.07-5l7.3 12.34c8.85-4.73 14.7-1.46 14.7-1.46m10.38 28.63c-3.07-8.81-16.93-13.41-22.74-22.18"/><path d="M186.35 137.68c-3.55 4.81-1.74 14.19-5.72 19.18m-5.78-4.98a8 8 0 0 1 8.12-1.71m-12.29-14.37l1.74 7.23m3.7-7.59s1.49 4.2.14 6.62m5.64-6.17s0 5.37-1.16 6.4m-2.66-34.14a60 60 0 0 0-7.28 20m3.7 3.79s2-7.57 6.49-11.25M146 75.35s-11.36 2.75-17-4.66-2.5-13.59-13.16-27.06-23.28-10-23.28-10 13.26-1.53 20.63 10.22c9.24 14.73.9 28.7 7.08 38.74 2.64 4.29 5.43 5.24 9.22 5.26m16.99-14.57s9.9 6 18.7 0m-20.28-5.77s11.38 4.59 15.34-2.75m-17.89-3.96s11.87 5.12 12.49-.72m-14.33-4.94s6.66 3.49 6.52-1.36M124.46 21a5.89 5.89 0 0 1 3.12 2.85c3.51 5.91-4 14-.4 24.62 2.61 7.6 11 12.86 15 13.65m-2.76-8.87a10.35 10.35 0 0 1-9.65-8c-2.09-8 2.53-16.77 0-21.1s-5-3.32-5-3.32m-48.65 37.5s4.61-3.62 9.92-1.07S99 69.64 113.15 63.85m-36.54-5.51s4.5-1.8 7.55.55c8.6 6.65 7.42 20.54 18 20.92m-6.07-11.07s6.9 3.05 8.91 9.69 4.84 23.51 14.48 26.89m5.06-6.96c-2.27-.61-9.22-4.35-13.62-13.5s-8-15.47-15.23-16.47m47.84-52.91c4.11 6.79 18.09 10.27 20.86 23.06"/><path d="M143.53 15.48c4.37 6.12 4.28 20.39 10.07 26.35m-9.6 7.8c-4.6-7.91 4.6-20.27-1-34.66M77.76 78.74C88 90 99.26 83.22 103.47 89.52m-8.84 15.37c-10.66-5-10.11-18-17.28-26.48"/><path d="M104,99.24C95.11,99,81.7,85.56,77.23,78.07"/></g></g></svg>