<svg xmlns="http://www.w3.org/2000/svg" viewBox="0 0 408.68 408.68"><g id="Layer_2" data-name="Layer 2"><g id="bg_sm" data-name="bg sm"><path d="M403.07,226.11l-.29,0c-1.8.27-4.53.67-6.3-1.49a27.2,27.2,0,0,1-2.46-4.15c-1.67-3.18-3.67-7-6.68-9.07a50.8,50.8,0,0,0,5.65-1.12c14.91-3.88,15.68-18.29,15.69-18.44a.76.76,0,0,0-.49-.73.73.73,0,0,0-.85.24,23.63,23.63,0,0,1-29.19,7.43v-.07c-.11-.32-2.43-7.91,4.13-12.41,1.25-.85,2.54-1.61,3.8-2.33,5.84-3.39,11.36-6.6,9.21-18.91a.73.73,0,0,0-.68-.62.74.74,0,0,0-.77.52c-1,3-2.56,6.17-9.26,5.84a14.41,14.41,0,0,1-6.41-2.06c5.29-4.12,7.51-9.33,9.66-14.39,1.67-3.92,3.24-7.63,6.17-10.64a.75.75,0,0,0-.74-1.25c-6.58,1.79-14.63-3.76-19.39-8.29l.53.11c3.15.64,6.11,1.25,8.89-.09a9.32,9.32,0,0,0,5.25-9.92.76.76,0,0,0-.46-.59.77.77,0,0,0-.75.1l-.23.19c-1.43,1.13-3.58,2.84-6.21,1.86a28.21,28.21,0,0,1-4.2-2.37c-3-1.92-6.67-4.22-10.32-4.51a50.72,50.72,0,0,0,4.34-3.79c11-10.82,4.43-23.69,4.36-23.82a.74.74,0,0,0-1.4.25,23.64,23.64,0,0,1-21.56,21l-.05-.07c-.25-.22-6.05-5.62-2.62-12.8.65-1.37,1.4-2.67,2.12-3.93,3.37-5.86,6.54-11.39-1.47-21a.72.72,0,0,0-.9-.19.75.75,0,0,0-.41.83c.67,3.08.88,6.62-5.1,9.69a14.36,14.36,0,0,1-6.58,1.42c2.53-6.21,1.84-11.84,1.17-17.29-.52-4.23-1-8.23,0-12.3a.77.77,0,0,0-.36-.84.74.74,0,0,0-.9.13c-5.4,5.43-16.12,3.66-20.94,2.51l.51-.17c3-1,5.91-2,7.65-4.53a9.31,9.31,0,0,0-.42-11.21.74.74,0,0,0-.69-.28.75.75,0,0,0-.59.47l-.11.27c-.67,1.7-1.68,4.26-4.45,4.71a27.63,27.63,0,0,1-4.82.06c-3.59-.15-7.88-.32-11.19,1.25A53,53,0,0,0,303.85,44c4.09-14.84-8-22.72-8.13-22.8a.75.75,0,0,0-1.09.92,24.22,24.22,0,0,1-.11,19.35,24.26,24.26,0,0,1-8,9.63.15.15,0,0,1-.07,0c-.08,0-8.06-1.82-8.68-9.77-.11-1.52-.12-3-.12-4.47,0-6.75,0-13.13-11.77-17.43a.76.76,0,0,0-.88.28.77.77,0,0,0,.07.93c2.11,2.33,4.07,5.3.43,10.94a14.49,14.49,0,0,1-5,4.52c-.92-6.64-4.33-11.17-7.63-15.56-2.57-3.41-5-6.62-6.13-10.66a.75.75,0,0,0-.72-.55h0a.75.75,0,0,0-.72.56c-1.95,7.4-12.12,11.23-16.87,12.64l.35-.4c2.13-2.4,4.14-4.66,4.37-7.74a9.34,9.34,0,0,0-6-9.51.73.73,0,0,0-.74.11.75.75,0,0,0-.28.7l0,.29c.27,1.8.67,4.53-1.49,6.3a27.2,27.2,0,0,1-4.15,2.46c-3.18,1.67-7,3.67-9.07,6.68a51.26,51.26,0,0,0-1.12-5.65C206.44.79,192,0,191.88,0a.76.76,0,0,0-.73.49.73.73,0,0,0,.24.85A24.25,24.25,0,0,1,201,18.16a24.2,24.2,0,0,1-2.16,12.37h-.07c-.08,0-7.89,2.45-12.41-4.14-.85-1.25-1.61-2.54-2.33-3.8-3.39-5.84-6.6-11.36-18.91-9.21a.74.74,0,0,0-.62.68.76.76,0,0,0,.52.77c3,1,6.17,2.55,5.84,9.26a14.41,14.41,0,0,1-2.06,6.41c-4.12-5.29-9.33-7.51-14.39-9.66-3.92-1.67-7.63-3.24-10.64-6.17a.76.76,0,0,0-.9-.11.77.77,0,0,0-.35.85c1.8,6.58-3.76,14.63-8.29,19.39,0-.18.07-.36.11-.53.64-3.14,1.25-6.11-.09-8.89a9.32,9.32,0,0,0-9.92-5.25.76.76,0,0,0-.49,1.21l.19.23c1.13,1.43,2.84,3.59,1.86,6.21A28.21,28.21,0,0,1,123.5,32c-1.92,3-4.22,6.67-4.51,10.32A50.72,50.72,0,0,0,115.2,38c-10.82-11-23.69-4.43-23.82-4.36a.74.74,0,0,0,.25,1.4,23.66,23.66,0,0,1,21,21.56l-.07,0c-.22.25-5.63,6.05-12.8,2.62-1.37-.65-2.67-1.4-3.93-2.12-5.85-3.37-11.39-6.54-21,1.47a.72.72,0,0,0-.19.9.74.74,0,0,0,.83.41c3.08-.66,6.62-.87,9.69,5.1a14.36,14.36,0,0,1,1.42,6.58c-6.21-2.53-11.84-1.84-17.29-1.17-4.23.52-8.23,1-12.3,0a.75.75,0,0,0-.84.35.77.77,0,0,0,.13.91c4.84,4.8,4.05,14.55,2.51,20.94-.05-.17-.11-.35-.17-.52-1-3-2-5.91-4.52-7.65a9.33,9.33,0,0,0-11.22.42.74.74,0,0,0-.28.69.75.75,0,0,0,.47.59l.27.11c1.7.67,4.26,1.69,4.71,4.45a27.63,27.63,0,0,1,.06,4.82c-.15,3.59-.32,7.88,1.25,11.19A53.67,53.67,0,0,0,44,104.83c-14.85-4.09-22.73,8-22.81,8.13a.74.74,0,0,0,.06.88.76.76,0,0,0,.86.22,24.18,24.18,0,0,1,19.35.1,24.36,24.36,0,0,1,9.64,8,.43.43,0,0,1,0,.07c0,.08-1.82,8.06-9.77,8.68-1.52.12-3,.12-4.47.12-6.75,0-13.13,0-17.43,11.77a.76.76,0,0,0,.28.88.77.77,0,0,0,.93-.07c2.33-2.11,5.3-4.07,10.94-.42a14.38,14.38,0,0,1,4.52,5c-6.64.92-11.17,4.33-15.56,7.63-3.41,2.57-6.62,5-10.66,6.13a.75.75,0,0,0,0,1.45c7.4,1.95,11.23,12.12,12.64,16.87l-.4-.35c-2.4-2.13-4.66-4.14-7.74-4.37a9.35,9.35,0,0,0-9.51,6,.73.73,0,0,0,.11.74.75.75,0,0,0,.7.28l.29,0c1.8-.27,4.53-.67,6.3,1.49a27.2,27.2,0,0,1,2.46,4.15c1.67,3.18,3.67,7,6.68,9.07a51.26,51.26,0,0,0-5.65,1.12C.79,202.24,0,216.65,0,216.8a.75.75,0,0,0,.49.73.73.73,0,0,0,.85-.24,24.25,24.25,0,0,1,16.82-9.59,24.31,24.31,0,0,1,12.37,2.16.17.17,0,0,0,0,.07c.1.33,2.43,7.91-4.13,12.41-1.26.85-2.55,1.61-3.81,2.33-5.84,3.39-11.36,6.6-9.21,18.91a.74.74,0,0,0,.68.62h.06a.75.75,0,0,0,.71-.52c1-3,2.56-6.17,9.26-5.84a14.41,14.41,0,0,1,6.41,2.06c-5.29,4.12-7.51,9.33-9.66,14.39-1.67,3.93-3.24,7.63-6.17,10.64a.76.76,0,0,0-.11.9.77.77,0,0,0,.85.35c6.58-1.8,14.63,3.76,19.39,8.29l-.53-.11c-3.14-.64-6.11-1.25-8.89.09a9.32,9.32,0,0,0-5.25,9.92.76.76,0,0,0,1.21.49l.23-.19c1.43-1.13,3.59-2.85,6.21-1.86a28.21,28.21,0,0,1,4.2,2.37c3,1.92,6.67,4.22,10.32,4.51A52.29,52.29,0,0,0,38,293.48c-11,10.82-4.43,23.69-4.36,23.82a.75.75,0,0,0,.66.4h.13a.74.74,0,0,0,.61-.64,23.66,23.66,0,0,1,21.56-21l0,.07c.25.22,6.05,5.63,2.62,12.8-.65,1.37-1.4,2.67-2.12,3.93-3.36,5.86-6.54,11.39,1.47,21a.74.74,0,0,0,.58.27.61.61,0,0,0,.32-.08.75.75,0,0,0,.41-.83c-.67-3.08-.87-6.62,5.1-9.69a14.36,14.36,0,0,1,6.58-1.42c-2.53,6.21-1.84,11.84-1.17,17.29.52,4.23,1,8.23,0,12.3a.75.75,0,0,0,.35.84.86.86,0,0,0,.37.1.76.76,0,0,0,.54-.23c5.39-5.43,16.11-3.66,20.93-2.51l-.51.17c-3,1-5.91,2-7.65,4.53a9.31,9.31,0,0,0,.42,11.21.75.75,0,0,0,.59.29h.1a.75.75,0,0,0,.59-.47l.11-.27c.67-1.7,1.69-4.26,4.45-4.71a27.63,27.63,0,0,1,4.82-.06c3.59.15,7.88.32,11.19-1.24a52.65,52.65,0,0,0-1.86,5.44c-4.09,14.85,8,22.74,8.13,22.81a.73.73,0,0,0,.88-.06.75.75,0,0,0,.22-.85,23.62,23.62,0,0,1,8.15-29,.15.15,0,0,1,.07,0c.33.07,8.06,1.84,8.68,9.77.12,1.52.12,3,.12,4.47,0,6.75,0,13.13,11.77,17.43a.74.74,0,0,0,.88-.28.77.77,0,0,0-.07-.93c-2.11-2.33-4.07-5.3-.42-10.94a14.38,14.38,0,0,1,5-4.52c.92,6.64,4.33,11.17,7.63,15.56,2.57,3.41,5,6.62,6.13,10.66a.75.75,0,0,0,.73.55h0a.75.75,0,0,0,.72-.56c1.74-6.6,10.57-10.79,16.87-12.65-.12.14-.23.28-.35.41-2.13,2.4-4.14,4.66-4.37,7.74a9.35,9.35,0,0,0,6,9.51.92.92,0,0,0,.28.05.7.7,0,0,0,.46-.16.75.75,0,0,0,.28-.7l0-.29c-.27-1.8-.67-4.53,1.49-6.3a27.7,27.7,0,0,1,4.15-2.46c3.18-1.67,7-3.67,9.07-6.68a50.8,50.8,0,0,0,1.12,5.65c3.88,14.9,18.29,15.68,18.44,15.69h0a.75.75,0,0,0,.7-.49.73.73,0,0,0-.24-.85,23.63,23.63,0,0,1-7.43-29.19h.08c.07,0,7.88-2.45,12.4,4.13.86,1.26,1.61,2.55,2.34,3.81,2.87,5,5.62,9.69,13.92,9.69a28.43,28.43,0,0,0,5-.48.75.75,0,0,0,.1-1.45c-3-1-6.17-2.55-5.84-9.26a14.41,14.41,0,0,1,2.06-6.41c4.12,5.29,9.33,7.51,14.39,9.66,3.93,1.67,7.63,3.24,10.64,6.17a.73.73,0,0,0,.52.21.72.72,0,0,0,.38-.1.75.75,0,0,0,.35-.85c-2-7.38,4.88-15.78,8.29-19.38,0,.17-.07.35-.11.52-.64,3.14-1.25,6.11.09,8.89a9.37,9.37,0,0,0,8.35,5.36,10.83,10.83,0,0,0,1.57-.11.76.76,0,0,0,.59-.46.77.77,0,0,0-.1-.75l-.19-.23c-1.13-1.43-2.84-3.59-1.86-6.21a28.21,28.21,0,0,1,2.37-4.2c1.92-3,4.22-6.67,4.51-10.32a52.29,52.29,0,0,0,3.79,4.34,20.1,20.1,0,0,0,14.66,6.36,21.78,21.78,0,0,0,9.16-2,.74.74,0,0,0-.25-1.4,23.62,23.62,0,0,1-21-21.56s0,0,.06-.05,5.6-6.07,12.8-2.62c1.37.65,2.67,1.4,3.93,2.12,3.14,1.81,6.19,3.56,9.82,3.56,3.14,0,6.71-1.31,11.16-5a.72.72,0,0,0,.19-.9.75.75,0,0,0-.83-.41c-3.08.67-6.62.87-9.69-5.1a14.38,14.38,0,0,1-1.42-6.58,24.93,24.93,0,0,0,9.6,1.79,62.32,62.32,0,0,0,7.69-.62c4.24-.52,8.23-1,12.3,0a.74.74,0,0,0,.71-1.25c-4.84-4.81-4.05-14.56-2.51-21,.06.17.11.35.17.52,1,3,2,5.91,4.53,7.65A10.06,10.06,0,0,0,360,326a9.14,9.14,0,0,0,5.76-2.12.74.74,0,0,0,.28-.69.76.76,0,0,0-.46-.59l-.28-.11c-1.7-.67-4.26-1.69-4.71-4.45a27.63,27.63,0,0,1-.06-4.82c.15-3.59.32-7.88-1.25-11.19a53,53,0,0,0,5.46,1.86,22.49,22.49,0,0,0,6,.84c11,0,16.74-8.86,16.8-9a.74.74,0,0,0-.06-.88.76.76,0,0,0-.86-.22,23.62,23.62,0,0,1-29-8.15l0-.07c0-.08,1.82-8.06,9.77-8.68,1.52-.12,3-.12,4.47-.12,6.75,0,13.13,0,17.43-11.77a.74.74,0,0,0-1.2-.81c-2.34,2.11-5.31,4.07-10.95.43a14.49,14.49,0,0,1-4.52-5c6.64-.92,11.17-4.33,15.56-7.63,3.41-2.57,6.63-5,10.66-6.13a.75.75,0,0,0,0-1.45c-7.4-1.95-11.23-12.12-12.64-16.87l.4.35c2.4,2.13,4.67,4.14,7.74,4.37l.62,0a9.24,9.24,0,0,0,8.89-6,.73.73,0,0,0-.11-.74A.75.75,0,0,0,403.07,226.11Z"/></g></g></svg>